<svg width="0" height="0" class="hidden">
  <symbol version="1.1" xmlns="http://www.w3.org/2000/svg" viewBox="0 0 43 32" id="icon-flag-az">
    <path fill="#3f9c35" d="M0.007 0h42.667v32h-42.667z"></path>
    <path fill="#ed2939" d="M0.007 0h42.667v21.333h-42.667z"></path>
    <path fill="#00b9e4" d="M0.007 0h42.667v10.667h-42.667z"></path>
    <path fill="#fff" d="M25.067 16c0 2.651-2.149 4.8-4.8 4.8s-4.8-2.149-4.8-4.8c0-2.651 2.149-4.8 4.8-4.8s4.8 2.149 4.8 4.8z"></path>
    <path fill="#ed2939" d="M25.333 16c0 2.209-1.791 4-4 4s-4-1.791-4-4c0-2.209 1.791-4 4-4s4 1.791 4 4z"></path>
    <path fill="#fff" d="M25.6 13.333l0.513 1.433 1.373-0.653-0.653 1.38 1.433 0.507-1.433 0.513 0.653 1.373-1.373-0.653-0.513 1.433-0.513-1.433-1.373 0.653 0.653-1.373-1.433-0.513 1.433-0.513-0.653-1.373 1.373 0.653z"></path>
  </symbol>
  <symbol version="1.1" xmlns="http://www.w3.org/2000/svg" viewBox="0 0 43 32" id="icon-flag-de">
    <path fill="#fc0" d="M0 21.333h42.667v10.667h-42.667z"></path>
    <path fill="#000001" d="M0 0h42.667v10.667h-42.667z"></path>
    <path fill="#f00" d="M0 10.667h42.667v10.667h-42.667z"></path>
  </symbol>
  <symbol version="1.1" xmlns="http://www.w3.org/2000/svg" viewBox="0 0 43 32" id="icon-flag-fr">
    <path fill="#fff" d="M0 0h42.667v32h-42.667z"></path>
    <path fill="#000091" d="M0 0h14.22v32h-14.22z"></path>
    <path fill="#e1000f" d="M28.447 0h14.22v32h-14.22z"></path>
  </symbol>
  <symbol version="1.1" xmlns="http://www.w3.org/2000/svg" viewBox="0 0 43 32" id="icon-flag-tr">
    <path fill="#e30a17" d="M0 0h42.667v32h-42.667z"></path>
    <path fill="#fff" d="M27.133 16.5c0 4.413-3.64 7.993-8.133 7.993s-8.133-3.58-8.133-8 3.64-7.987 8.133-7.987 8.133 3.58 8.133 7.993z"></path>
    <path fill="#e30a17" d="M27.533 16.5c0 3.533-2.907 6.393-6.5 6.393s-6.507-2.867-6.507-6.4 2.913-6.387 6.507-6.387 6.507 2.86 6.507 6.393z"></path>
    <path fill="#fff" d="M28.713 12.767l-0.067 2.953-2.753 0.747 2.72 0.967-0.067 2.713 1.767-2.12 2.68 0.933-1.547-2.273 1.887-2.26-2.9 0.8-1.72-2.467z"></path>
  </symbol>
  <symbol version="1.1" xmlns="http://www.w3.org/2000/svg" viewBox="0 0 43 32" id="icon-flag-ua">
    <path fill="#ffd700" d="M0 0h42.667v32h-42.667z"></path>
    <path fill="#0057b8" d="M0 0h42.667v16h-42.667z"></path>
  </symbol>
  <symbol version="1.1" xmlns="http://www.w3.org/2000/svg" viewBox="0 0 43 32" id="icon-flag-es">
    <path fill="#aa151b" style="fill: var(--color1, #aa151b)" d="M0 0h42.667v32h-42.667z"></path>
    <path fill="#f1bf00" style="fill: var(--color2, #f1bf00)" d="M0 8h42.667v16h-42.667z"></path>
    <path fill="#ad1519" style="fill: var(--color3, #ad1519)" d="M8.487 14.22l-0.053-0.007-0.067-0.067-0.047-0.027-0.040-0.053s-0.047-0.073-0.027-0.133q0.033-0.080 0.093-0.1l0.1-0.033 0.067-0.027 0.087-0.020 0.033-0.020 0.133-0.027 0.107 0.007h0.32c0.027 0 0.080 0.020 0.093 0.027l0.133 0.047c0.033 0.007 0.107 0.020 0.147 0.040q0.053 0.033 0.073 0.067l0.033 0.067v0.073l-0.033 0.053-0.040 0.067-0.053 0.040s-0.033 0.033-0.067 0.027-0.32-0.053-0.507-0.053-0.487 0.060-0.487 0.060z"></path>
    <path fill="#c8b100" style="fill: var(--color4, #c8b100)" d="M8.887 13.8q0.007-0.14 0.087-0.153 0.087 0.007 0.093 0.16c0 0.087-0.040 0.16-0.093 0.16s-0.087-0.073-0.087-0.167z"></path>
    <path fill="#c8b100" style="fill: var(--color4, #c8b100)" d="M8.933 13.8q0-0.133 0.047-0.14c0.020 0 0.040 0.067 0.040 0.14q0 0.133-0.040 0.147c-0.027 0-0.040-0.067-0.040-0.147z"></path>
    <path fill="#c8b100" style="fill: var(--color4, #c8b100)" d="M8.92 13.633q0.007-0.047 0.053-0.053 0.067 0 0.067 0.053-0.007 0.053-0.067 0.060c-0.060 0.007-0.053-0.027-0.053-0.060z"></path>
    <path fill="#c8b100" style="fill: var(--color4, #c8b100)" d="M9.020 13.613v0.040h-0.093v-0.040h0.033v-0.080h-0.047v-0.040h0.047v-0.033h0.033v0.033h0.040v0.040h-0.040v0.080z"></path>
    <path fill="#c8b100" style="fill: var(--color4, #c8b100)" d="M9.060 13.613v0.040h-0.167v-0.040h0.067v-0.080h-0.047v-0.040h0.047v-0.033h0.033v0.033h0.040v0.040h-0.040v0.080z"></path>
    <path fill="#c8b100" style="fill: var(--color4, #c8b100)" d="M8.98 14.213h-0.313v-0.073l-0.020-0.080-0.013-0.1c-0.087-0.113-0.167-0.187-0.193-0.167q0.007-0.033 0.033-0.047c0.073-0.047 0.233 0.067 0.347 0.24l0.033 0.047h0.253l0.027-0.047c0.12-0.18 0.273-0.287 0.347-0.24q0.027 0.013 0.033 0.047c-0.027-0.020-0.107 0.053-0.193 0.167l-0.013 0.1-0.013 0.080-0.007 0.073z"></path>
    <path fill="#c8b100" style="fill: var(--color4, #c8b100)" d="M8.52 14.353l-0.033-0.067c0.147-0.043 0.316-0.068 0.49-0.068s0.343 0.025 0.503 0.071l-0.013-0.003-0.033 0.053-0.020 0.053c-0.121-0.034-0.259-0.054-0.403-0.054-0.013 0-0.026 0-0.039 0.001l0.002-0c-0.173 0-0.347 0.020-0.433 0.053z"></path>
    <path fill="#c8b100" style="fill: var(--color4, #c8b100)" d="M8.973 14.513c0.16 0 0.333-0.027 0.393-0.040q0.067-0.020 0.067-0.053 0-0.020-0.027-0.027c-0.093-0.033-0.267-0.053-0.433-0.053s-0.333 0.020-0.427 0.053q-0.020 0-0.027 0.020 0 0.040 0.067 0.060c0.067 0.013 0.233 0.040 0.387 0.040z"></path>
    <path fill="#c8b100" style="fill: var(--color4, #c8b100)" d="M9.473 14.213l-0.033-0.033s-0.040 0.020-0.087 0.013c-0.040 0-0.060-0.067-0.060-0.067s-0.047 0.047-0.087 0.047-0.067-0.040-0.067-0.040-0.047 0.033-0.087 0.027-0.080-0.053-0.080-0.053-0.040 0.053-0.080 0.053c-0.040 0.007-0.067-0.033-0.067-0.033s-0.027 0.040-0.073 0.047-0.093-0.040-0.093-0.040-0.033 0.047-0.067 0.067c-0.033 0-0.080-0.027-0.080-0.027l-0.013 0.033-0.020 0.007 0.013 0.033c0.138-0.038 0.297-0.060 0.461-0.060 0.007 0 0.013 0 0.020 0h-0.001q0.3 0 0.493 0.067z"></path>
    <path fill="#c8b100" style="fill: var(--color4, #c8b100)" d="M8.98 14.047h0.013v0.027q0 0.067 0.067 0.067c0.001 0 0.002 0 0.003 0 0.030 0 0.055-0.019 0.063-0.046l0-0 0.013-0.020v0.027q0.020 0.053 0.073 0.053 0.067 0 0.067-0.067v-0.007l0.027-0.027 0.013 0.033-0.007 0.027c0 0.037 0.030 0.067 0.067 0.067v0q0.040 0 0.060-0.033l0.013-0.013v0.020q0 0.033 0.027 0.047l0.067-0.027 0.047-0.047v0.027s-0.033 0.053-0.067 0.067q-0.020 0.027-0.053 0.020-0.033 0-0.047-0.040-0.020 0.020-0.047 0.013-0.067 0-0.093-0.053-0.033 0.033-0.073 0.033c-0.032-0.004-0.059-0.019-0.080-0.040l-0-0-0.067 0.027c-0.034-0.002-0.064-0.017-0.087-0.040l-0-0c-0.020 0.026-0.051 0.043-0.086 0.043-0.029 0-0.055-0.011-0.074-0.030l0 0c-0.021 0.021-0.048 0.036-0.079 0.040l-0.001 0-0.073-0.033q-0.027 0.053-0.093 0.053l-0.047-0.013q-0.013 0.033-0.047 0.040t-0.060-0.013l-0.067-0.067 0.007-0.033 0.053 0.047q0.053 0.033 0.060 0.027 0.027-0.007 0.027-0.047v-0.020l0.013 0.013q0.020 0.033 0.060 0.033c0.037 0 0.067-0.030 0.067-0.067v0-0.060l0.027 0.027v0.007q0.007 0.067 0.067 0.067t0.073-0.060v-0.020l0.013 0.020q0.020 0.040 0.067 0.047 0.067 0 0.073-0.067v-0.020h0.020z"></path>
    <path fill="#c8b100" style="fill: var(--color4, #c8b100)" d="M8.973 14.22q-0.3 0-0.487 0.067l-0.020-0.013 0.007-0.020c0.146-0.042 0.313-0.067 0.486-0.067 0.005 0 0.010 0 0.015 0h-0.001q0.307 0 0.507 0.067l0.007 0.020-0.020 0.013c-0.145-0.042-0.313-0.067-0.485-0.067-0.003 0-0.006 0-0.008 0h0z"></path>
    <path fill="#fff" style="fill: var(--color5, #fff)" d="M8.787 14.293q0-0.027 0.033-0.027c0.015 0 0.027 0.012 0.027 0.027v0q0 0.020-0.027 0.027c-0.002 0.001-0.004 0.001-0.007 0.001-0.015 0-0.027-0.012-0.027-0.027 0-0 0-0.001 0-0.001v0z"></path>
    <path fill="#ad1519" style="fill: var(--color3, #ad1519)" d="M8.98 14.3h-0.067q-0.013 0-0.020-0.020l0.020-0.020h0.133l0.013 0.020-0.020 0.020h-0.067z"></path>
    <path fill="#058e6e" style="fill: var(--color6, #058e6e)" d="M8.667 14.327h-0.047q-0.013 0-0.020-0.013l0.013-0.020 0.093-0.013q0.020 0 0.027 0.013c0.001 0.002 0.001 0.004 0.001 0.007 0 0.011-0.009 0.020-0.020 0.020-0 0-0.001 0-0.001-0h0z"></path>
    <path fill="#ad1519" style="fill: var(--color3, #ad1519)" d="M8.487 14.353l0.020-0.027h0.047l-0.027 0.040z"></path>
    <path fill="#fff" style="fill: var(--color5, #fff)" d="M9.107 14.293q0-0.027 0.027-0.027c0.002-0.001 0.004-0.001 0.007-0.001 0.015 0 0.027 0.012 0.027 0.027 0 0 0 0.001 0 0.001v-0c0 0 0 0.001 0 0.001 0 0.015-0.012 0.027-0.027 0.027-0.002 0-0.005-0-0.007-0.001l0 0c-0.015 0-0.027-0.012-0.027-0.027v0z"></path>
    <path fill="#058e6e" style="fill: var(--color6, #058e6e)" d="M9.287 14.327h0.040c0.002 0.001 0.005 0.001 0.007 0.001 0.009 0 0.017-0.006 0.019-0.015l0-0-0.020-0.020-0.040-0.007-0.047-0.007q-0.020 0-0.027 0.013 0 0.020 0.020 0.027z"></path>
    <path fill="#ad1519" style="fill: var(--color3, #ad1519)" d="M9.467 14.36l-0.020-0.033h-0.047l0.020 0.040z"></path>
    <path fill="#ad1519" style="fill: var(--color3, #ad1519)" d="M8.973 14.473c-0.011 0-0.023 0-0.035 0-0.129 0-0.255-0.015-0.376-0.043l0.011 0.002c0.121-0.030 0.26-0.048 0.403-0.048s0.282 0.017 0.415 0.050l-0.012-0.002q-0.167 0.040-0.4 0.040z"></path>
    <path fill="#c8b100" style="fill: var(--color4, #c8b100)" d="M9.467 14.133l-0.007-0.020q-0.020 0-0.027 0.013 0 0.027 0.013 0.027z"></path>
    <path fill="#c8b100" style="fill: var(--color4, #c8b100)" d="M9.153 14.080q0-0.020-0.013-0.027l-0.013 0.020q0 0.020 0.013 0.027l0.020-0.020z"></path>
    <path fill="#c8b100" style="fill: var(--color4, #c8b100)" d="M8.8 14.080l0.007-0.027q0.020 0 0.020 0.020t-0.013 0.027z"></path>
    <path fill="#c8b100" style="fill: var(--color4, #c8b100)" d="M8.487 14.133l0.007-0.020q0.020 0 0.027 0.013 0 0.027-0.013 0.027z"></path>
    <path fill="#c8b100" style="fill: var(--color4, #c8b100)" d="M8.973 13.9l-0.053 0.033 0.040 0.087 0.013 0.007 0.013-0.007 0.047-0.087z"></path>
    <path fill="#c8b100" style="fill: var(--color4, #c8b100)" d="M8.853 14.033l0.027 0.033 0.087-0.027 0.007-0.013-0.007-0.013-0.087-0.020z"></path>
    <path fill="#c8b100" style="fill: var(--color4, #c8b100)" d="M9.093 14.033l-0.020 0.033-0.087-0.027-0.013-0.013 0.013-0.013 0.087-0.020z"></path>
    <path fill="#c8b100" style="fill: var(--color4, #c8b100)" d="M8.62 13.933l-0.047 0.047 0.060 0.067 0.013 0.007 0.007-0.007 0.020-0.087z"></path>
    <path fill="#c8b100" style="fill: var(--color4, #c8b100)" d="M8.533 14.080l0.027 0.033 0.080-0.040v-0.013l-0.007-0.013-0.087-0.007-0.020 0.040z"></path>
    <path fill="#c8b100" style="fill: var(--color4, #c8b100)" d="M8.767 14.033l-0.020 0.040h-0.080l-0.013-0.013 0.007-0.020 0.080-0.040z"></path>
    <path fill="#c8b100" style="fill: var(--color4, #c8b100)" d="M8.44 14.093v0.040l-0.093 0.013-0.013-0.007v-0.013l0.067-0.060z"></path>
    <path fill="#c8b100" style="fill: var(--color4, #c8b100)" d="M8.613 14.060q0-0.033 0.033-0.033t0.033 0.033l-0.033 0.027z"></path>
    <path fill="#c8b100" style="fill: var(--color4, #c8b100)" d="M9.333 13.933l0.047 0.047-0.060 0.067-0.013 0.007-0.007-0.007-0.020-0.087z"></path>
    <path fill="#c8b100" style="fill: var(--color4, #c8b100)" d="M9.427 14.080l-0.033 0.033-0.080-0.040v-0.013l0.007-0.013 0.087-0.007z"></path>
    <path fill="#c8b100" style="fill: var(--color4, #c8b100)" d="M9.187 14.033l0.020 0.040h0.087l0.013-0.013-0.007-0.020-0.080-0.040z"></path>
    <path fill="#c8b100" style="fill: var(--color4, #c8b100)" d="M9.5 14.093l0.007 0.040 0.087 0.013 0.013-0.007v-0.013l-0.067-0.060z"></path>
    <path fill="#c8b100" style="fill: var(--color4, #c8b100)" d="M8.947 14.027l0.027-0.027q0.033 0 0.033 0.027l-0.033 0.033z"></path>
    <path fill="#c8b100" style="fill: var(--color4, #c8b100)" d="M9.273 14.060q0.007-0.033 0.033-0.033l0.033 0.033-0.033 0.027z"></path>
    <path fill="#c8b100" style="fill: var(--color4, #c8b100)" d="M8.32 14.147l-0.040-0.047c-0.013-0.013-0.047-0.020-0.047-0.020q0-0.013 0.040-0.020l0.027 0.013v-0.013s0.020 0 0.027 0.020v0.067z"></path>
    <path fill="#c8b100" style="fill: var(--color4, #c8b100)" d="M8.32 14.133q0.020-0.020 0.033 0t0.013 0.033l-0.033-0.007q-0.020-0.013-0.013-0.033z"></path>
    <path fill="#c8b100" style="fill: var(--color4, #c8b100)" d="M9.62 14.147l0.040-0.047 0.047-0.020q0-0.013-0.040-0.020l-0.027 0.013v-0.013s-0.020 0-0.027 0.020v0.047z"></path>
    <path fill="#c8b100" style="fill: var(--color4, #c8b100)" d="M9.62 14.133q-0.007-0.020-0.033 0-0.020 0.013-0.007 0.033l0.033-0.007q0.020-0.013 0.007-0.033z"></path>
    <path fill="#c8b100" style="fill: var(--color4, #c8b100)" d="M8.267 14.867h1.427v-0.367h-1.427z"></path>
    <path fill="#c8b100" style="fill: var(--color4, #c8b100)" d="M8.413 15.12h1.127c-0.036-0.011-0.063-0.042-0.067-0.080l-0-0q0.007-0.067 0.067-0.087h-1.127q0.067 0.020 0.067 0.087c-0.002 0.039-0.030 0.071-0.066 0.080l-0.001 0z"></path>
    <path fill="#c8b100" style="fill: var(--color4, #c8b100)" d="M8.44 15.12h1.067q0.067 0 0.067 0.047t-0.067 0.053h-1.067q-0.060-0.007-0.067-0.053 0-0.067 0.067-0.053z"></path>
    <path fill="#c8b100" style="fill: var(--color4, #c8b100)" d="M8.44 14.867h1.067q0.067 0.007 0.067 0.047t-0.067 0.040h-1.067q-0.060 0-0.067-0.040 0.007-0.033 0.067-0.040z"></path>
    <path fill="#005bbf" style="fill: var(--color7, #005bbf)" d="M9.973 21.16q-0.147 0-0.247-0.053c-0.068-0.034-0.148-0.054-0.233-0.054-0.007 0-0.014 0-0.021 0l0.001-0q-0.14 0-0.247 0.053c-0.068 0.034-0.148 0.054-0.233 0.054-0.007 0-0.014-0-0.021-0l0.001 0q-0.153 0-0.247-0.053c-0.068-0.034-0.148-0.053-0.233-0.053-0.005 0-0.010 0-0.015 0h0.001c-0.004-0-0.009-0-0.014-0-0.085 0-0.165 0.020-0.236 0.055l0.003-0.001c-0.068 0.034-0.148 0.054-0.233 0.054-0.007 0-0.014-0-0.021-0l0.001 0v0.16q0.153 0 0.253-0.060c0.068-0.034 0.148-0.053 0.233-0.053 0.005 0 0.010 0 0.015 0h-0.001q0.147 0 0.247 0.053c0.1 0.053 0.147 0.060 0.247 0.060 0.002 0 0.005 0 0.007 0 0.090 0 0.175-0.022 0.249-0.061l-0.003 0.001q0.107-0.053 0.247-0.053 0.153 0 0.253 0.053c0.1 0.053 0.147 0.060 0.247 0.060z"></path>
    <path fill="#ccc" style="fill: var(--color8, #ccc)" d="M9.973 21.32c-0 0-0.001 0-0.001 0-0.090 0-0.174-0.022-0.249-0.061l0.003 0.001c-0.068-0.034-0.148-0.054-0.233-0.054-0.007 0-0.014 0-0.021 0l0.001-0q-0.14 0-0.247 0.053c-0.107 0.053-0.153 0.060-0.253 0.060s-0.187-0.027-0.247-0.060c-0.068-0.034-0.148-0.053-0.233-0.053-0.005 0-0.010 0-0.015 0h0.001c-0.004-0-0.009-0-0.014-0-0.085 0-0.165 0.020-0.236 0.055l0.003-0.001q-0.1 0.053-0.253 0.060v0.153q0.153 0 0.253-0.060c0.065-0.030 0.14-0.047 0.22-0.047 0.009 0 0.019 0 0.028 0.001l-0.001-0q0.147 0 0.247 0.047c0.072 0.039 0.159 0.062 0.25 0.062s0.178-0.023 0.253-0.064l-0.003 0.001c0.071-0.032 0.155-0.051 0.243-0.051 0.094 0 0.182 0.021 0.261 0.060l-0.004-0.002c0.068 0.034 0.148 0.053 0.233 0.053 0.005 0 0.010-0 0.015-0h-0.001z"></path>
    <path fill="#005bbf" style="fill: var(--color7, #005bbf)" d="M9.973 21.467c-0.008 0.001-0.018 0.001-0.028 0.001-0.080 0-0.155-0.020-0.221-0.055l0.002 0.001c-0.065-0.030-0.141-0.048-0.22-0.048-0.012 0-0.023 0-0.034 0.001l0.002-0q-0.14 0-0.247 0.047-0.1 0.060-0.253 0.060c-0.153 0-0.187-0.027-0.247-0.060-0.068-0.034-0.148-0.053-0.233-0.053-0.005 0-0.010 0-0.015 0h0.001c-0.004-0-0.009-0-0.014-0-0.085 0-0.165 0.020-0.236 0.055l0.003-0.001q-0.1 0.053-0.253 0.060v0.153q0.153 0 0.253-0.060c0.073-0.030 0.158-0.047 0.247-0.047s0.174 0.017 0.251 0.049l-0.004-0.002c0.066 0.038 0.145 0.060 0.229 0.060 0.006 0 0.012-0 0.018-0l-0.001 0c0.006 0 0.013 0 0.020 0 0.085 0 0.165-0.020 0.236-0.055l-0.003 0.001q0.107-0.053 0.247-0.053 0.153 0 0.253 0.053c0.1 0.053 0.147 0.053 0.247 0.053z"></path>
    <path fill="#ccc" style="fill: var(--color8, #ccc)" d="M9.973 21.78c-0.004 0-0.009 0-0.014 0-0.085 0-0.165-0.020-0.236-0.055l0.003 0.001q-0.107-0.053-0.247-0.053c-0.006-0-0.013-0-0.020-0-0.085 0-0.165 0.020-0.236 0.055l0.003-0.001q-0.1 0.053-0.253 0.053c-0.005 0-0.011 0-0.017 0-0.084 0-0.163-0.022-0.232-0.062l0.002 0.001c-0.065-0.030-0.14-0.047-0.22-0.047-0.009 0-0.019 0-0.028 0.001l0.001-0q-0.147 0-0.247 0.053c-0.1 0.053-0.153 0.053-0.253 0.053v-0.153c0.002 0 0.005 0 0.007 0 0.090 0 0.175-0.022 0.249-0.061l-0.003 0.001c0.073-0.030 0.158-0.047 0.247-0.047s0.174 0.017 0.251 0.049l-0.004-0.002c0.071 0.038 0.156 0.060 0.246 0.060 0 0 0.001 0 0.001 0h-0c0.006 0 0.013 0 0.020 0 0.085 0 0.165-0.020 0.236-0.055l-0.003 0.001q0.1-0.053 0.253-0.053t0.247 0.053c0.1 0.053 0.153 0.053 0.247 0.053z"></path>
    <path fill="#005bbf" style="fill: var(--color7, #005bbf)" d="M9.973 21.933c-0.004 0-0.009 0-0.014 0-0.085 0-0.165-0.020-0.236-0.055l0.003 0.001q-0.107-0.053-0.247-0.053c-0.006-0-0.013-0-0.020-0-0.085 0-0.165 0.020-0.236 0.055l0.003-0.001q-0.1 0.053-0.253 0.053c-0.005 0-0.011 0-0.017 0-0.084 0-0.163-0.022-0.232-0.062l0.002 0.001c-0.065-0.030-0.14-0.047-0.22-0.047-0.009 0-0.019 0-0.028 0.001l0.001-0q-0.147 0-0.247 0.053c-0.1 0.053-0.153 0.053-0.253 0.053v-0.153c0.006 0 0.013 0 0.020 0 0.085 0 0.165-0.020 0.236-0.055l-0.003 0.001q0.1-0.053 0.247-0.053t0.247 0.047c0.072 0.039 0.159 0.062 0.25 0.062s0.178-0.023 0.253-0.064l-0.003 0.001q0.1-0.040 0.253-0.047t0.247 0.053c0.1 0.053 0.147 0.053 0.247 0.053z"></path>
    <path fill="#c8b100" style="fill: var(--color4, #c8b100)" d="M8.413 20.533l0.013 0.033c0 0.1-0.087 0.173-0.18 0.173h1.467c-0.093-0.009-0.168-0.081-0.18-0.172l-0-0.001v-0.033z"></path>
    <path fill="#c8b100" style="fill: var(--color4, #c8b100)" d="M8.44 20.433h1.067q0.067 0 0.067 0.053 0 0.040-0.067 0.047h-1.067q-0.060 0-0.067-0.053 0.007-0.040 0.067-0.047z"></path>
    <path fill="#c8b100" style="fill: var(--color4, #c8b100)" d="M8.247 21.113h1.467v-0.38h-1.467z"></path>
    <path fill="#ad1519" style="fill: var(--color3, #ad1519)" d="M8.133 19.113c-0.147 0.080-0.247 0.167-0.227 0.213q0.013 0.053 0.12 0.107c0.1 0.073 0.167 0.2 0.113 0.267 0.088-0.068 0.143-0.173 0.143-0.291 0-0.121-0.059-0.228-0.149-0.295l-0.001-0.001z"></path>
    <path fill="#ccc" style="fill: var(--color8, #ccc)" d="M8.453 20.373h1.040v-5.107h-1.040v5.1z"></path>
    <path fill="#ad1519" style="fill: var(--color3, #ad1519)" d="M10.56 17.18c-0.314-0.108-0.677-0.171-1.054-0.171-0.176 0-0.349 0.014-0.518 0.040l0.019-0.002c-0.627 0.107-1.1 0.353-1.060 0.56v0.013l-0.233-0.547c-0.040-0.22 0.48-0.5 1.173-0.613 0.157-0.031 0.338-0.048 0.523-0.048 0.032 0 0.063 0.001 0.095 0.002l-0.005-0c0.44 0 0.827 0.053 1.053 0.14v0.627z"></path>
    <path fill="#ad1519" style="fill: var(--color3, #ad1519)" d="M8.453 17.82c-0.287-0.020-0.487-0.093-0.507-0.213q-0.020-0.147 0.253-0.3l0.253 0.020z"></path>
    <path fill="#ad1519" style="fill: var(--color3, #ad1519)" d="M9.5 17.433q0.273 0.040 0.38 0.127l0.007 0.013c0.033 0.067-0.127 0.2-0.393 0.36v-0.5z"></path>
    <path fill="#ad1519" style="fill: var(--color3, #ad1519)" d="M7.807 18.8c-0.027-0.080 0.253-0.24 0.653-0.387l0.52-0.213c0.553-0.247 0.96-0.527 0.907-0.627v-0.013c0.027 0.027 0.067 0.533 0.067 0.533 0.053 0.087-0.32 0.367-0.827 0.607-0.167 0.080-0.507 0.2-0.667 0.267-0.293 0.093-0.58 0.287-0.553 0.353l-0.1-0.513z"></path>
    <path fill="#c8b100" style="fill: var(--color4, #c8b100)" d="M8.387 16.933c0.127-0.040 0.207-0.1 0.167-0.2q-0.040-0.087-0.187-0.040l-0.173 0.067 0.153 0.387 0.107-0.040zM8.307 16.753l0.047-0.020q0.067-0.020 0.093 0.053 0.027 0.053-0.033 0.1l-0.040 0.020zM8.793 16.587l-0.060 0.020h-0.053l0.087 0.407 0.287-0.053-0.013-0.027v-0.027l-0.167 0.040zM9.353 16.933q0.080-0.22 0.18-0.427h-0.067l-0.12 0.307-0.16-0.287-0.067 0.007h-0.067l0.233 0.4zM9.94 16.62l0.027-0.060c-0.031-0.024-0.070-0.038-0.113-0.040h-0q-0.173 0-0.187 0.113c-0.013 0.14 0.213 0.133 0.2 0.227q-0.013 0.067-0.093 0.053-0.087 0-0.093-0.080h-0.020l-0.027 0.073c0.034 0.022 0.075 0.036 0.119 0.040l0.001 0q0.18 0.013 0.213-0.113c0.013-0.133-0.22-0.14-0.207-0.227q0-0.053 0.087-0.047 0.067 0 0.080 0.060z"></path>
    <path fill="#ad1519" style="fill: var(--color3, #ad1519)" d="M18.527 14.107s-0.047 0.053-0.087 0.060c-0.033 0-0.073-0.033-0.073-0.033s-0.033 0.033-0.067 0.040-0.093-0.040-0.093-0.040l-0.067 0.067-0.073-0.020c-0.007-0.007-0.020 0.027-0.047 0.040h-0.027l-0.040-0.027-0.047-0.047-0.033-0.020-0.027-0.067v-0.033q0-0.067 0.147-0.113c0.020-0.005 0.043-0.008 0.067-0.008s0.047 0.003 0.069 0.009l-0.002-0q0.060-0.053 0.2-0.053c0.14 0 0.16 0.020 0.2 0.047 0.054-0.029 0.119-0.047 0.188-0.047 0.002 0 0.004 0 0.006 0h-0q0.14 0 0.2 0.053 0.053-0.020 0.133 0 0.147 0.040 0.147 0.113v0.033l-0.027 0.067-0.040 0.020-0.040 0.047-0.040 0.020s-0.020 0.013-0.027 0q-0.040-0.020-0.047-0.033c-0.007-0.013-0.040 0.027-0.067 0.013s-0.067-0.067-0.067-0.067-0.060 0.053-0.093 0.047c-0.040-0.007-0.067-0.040-0.067-0.040s-0.047 0.040-0.080 0.033-0.080-0.060-0.080-0.060z"></path>
    <path fill="#c8b100" style="fill: var(--color4, #c8b100)" d="M18.433 13.84c0-0.067 0.040-0.133 0.087-0.133s0.087 0.067 0.087 0.133-0.033 0.12-0.087 0.12q-0.080-0.007-0.087-0.127z"></path>
    <path fill="#c8b100" style="fill: var(--color4, #c8b100)" d="M18.487 13.84q0-0.113 0.033-0.12 0.040 0.013 0.047 0.12c0.007 0.107-0.020 0.113-0.040 0.113q-0.040-0.013-0.040-0.12z"></path>
    <path fill="#c8b100" style="fill: var(--color4, #c8b100)" d="M18.067 14.353l-0.033-0.067c0.148-0.044 0.318-0.069 0.493-0.069s0.346 0.025 0.506 0.072l-0.013-0.003-0.040 0.053-0.020 0.053c-0.121-0.034-0.259-0.054-0.403-0.054-0.013 0-0.026 0-0.039 0.001l0.002-0c-0.173 0-0.347 0.020-0.44 0.053z"></path>
    <path fill="#c8b100" style="fill: var(--color4, #c8b100)" d="M18.52 14.513c0.16 0 0.333-0.027 0.393-0.040q0.067-0.020 0.067-0.053 0-0.020-0.027-0.027c-0.123-0.034-0.264-0.053-0.41-0.053-0.008 0-0.016 0-0.024 0h0.001c-0.167 0-0.333 0.020-0.427 0.053q-0.020 0-0.027 0.020 0 0.040 0.067 0.060c0.067 0.013 0.233 0.040 0.387 0.040z"></path>
    <path fill="#fff" style="fill: var(--color5, #fff)" d="M18.9 13.893q0-0.020 0.027-0.027 0.033 0 0.033 0.027t-0.033 0.027c-0.015 0-0.027-0.012-0.027-0.027v0z"></path>
    <path fill="#c8b100" style="fill: var(--color4, #c8b100)" d="M19.020 14.213l-0.033-0.033s-0.040 0.020-0.087 0.013c-0.040 0-0.060-0.067-0.060-0.067s-0.047 0.047-0.087 0.047-0.067-0.040-0.067-0.040-0.047 0.033-0.087 0.027-0.080-0.053-0.080-0.053-0.040 0.053-0.080 0.053c-0.040 0.007-0.067-0.033-0.067-0.033s-0.020 0.040-0.073 0.047-0.093-0.040-0.093-0.040-0.027 0.047-0.067 0.067c-0.033 0-0.080-0.027-0.080-0.027l-0.007 0.033-0.020 0.007 0.007 0.033c0.138-0.038 0.297-0.060 0.462-0.060 0.009 0 0.018 0 0.026 0h-0.001q0.287 0 0.487 0.067l0.013-0.040z"></path>
    <path fill="#fff" style="fill: var(--color5, #fff)" d="M18.087 13.893q0-0.020 0.027-0.027 0.033 0 0.027 0.027c0 0.015-0.012 0.027-0.027 0.027v0c-0.015 0-0.027-0.012-0.027-0.027v0z"></path>
    <path fill="#c8b100" style="fill: var(--color4, #c8b100)" d="M18.527 14.047h0.013v0.027q0.007 0.067 0.067 0.067c0.001 0 0.002 0 0.003 0 0.030 0 0.055-0.019 0.064-0.046l0-0 0.013-0.020v0.027q0.020 0.053 0.073 0.053 0.067 0 0.067-0.067v-0.007l0.027-0.027 0.013 0.033-0.007 0.027c0 0.037 0.030 0.067 0.067 0.067v0q0.040 0 0.060-0.033l0.013-0.013v0.020q0 0.033 0.027 0.047l0.067-0.027c0.067-0.033 0.047-0.047 0.047-0.047v0.027s-0.033 0.053-0.067 0.067q-0.020 0.027-0.053 0.020-0.033 0-0.047-0.040l-0.047 0.013q-0.067 0-0.093-0.053l-0.073 0.033q-0.053 0-0.080-0.040l-0.067 0.027q-0.060 0-0.093-0.040-0.027 0.040-0.080 0.040-0.040 0-0.067-0.027c-0.022 0.023-0.053 0.038-0.086 0.040l-0 0q-0.040 0-0.073-0.033-0.027 0.053-0.093 0.053-0.027 0-0.047-0.013-0.013 0.033-0.047 0.040t-0.060-0.013l-0.067-0.067 0.007-0.033 0.053 0.047q0.053 0.033 0.060 0.027 0.027-0.007 0.027-0.047v-0.020l0.013 0.013q0.020 0.033 0.060 0.033c0.037 0 0.067-0.030 0.067-0.067v0-0.060l0.027 0.027v0.007q0.007 0.067 0.067 0.067t0.073-0.060v-0.020l0.013 0.020q0.027 0.040 0.067 0.047 0.067 0 0.073-0.067v-0.020h0.013z"></path>
    <path fill="#c8b100" style="fill: var(--color4, #c8b100)" d="M18.52 14.22q-0.3 0-0.487 0.067l-0.020-0.013 0.007-0.020q0.2-0.067 0.5-0.067t0.507 0.067l0.007 0.020-0.020 0.013c-0.145-0.042-0.313-0.067-0.485-0.067-0.003 0-0.006 0-0.008 0h0z"></path>
    <path fill="#fff" style="fill: var(--color5, #fff)" d="M18.333 14.293q0-0.027 0.033-0.027c0.015 0 0.027 0.012 0.027 0.027v0c0 0.015-0.012 0.027-0.027 0.027v0q-0.033 0-0.033-0.027z"></path>
    <path fill="#ad1519" style="fill: var(--color3, #ad1519)" d="M18.527 14.3h-0.067q-0.013 0-0.020-0.020l0.020-0.020h0.133l0.013 0.020-0.020 0.020h-0.067z"></path>
    <path fill="#058e6e" style="fill: var(--color6, #058e6e)" d="M18.213 14.327h-0.040c-0.002 0.001-0.005 0.001-0.007 0.001-0.009 0-0.017-0.006-0.019-0.015l-0-0 0.020-0.020 0.040-0.007 0.047-0.007q0.020 0 0.027 0.013c0.001 0.002 0.001 0.004 0.001 0.007 0 0.011-0.009 0.020-0.020 0.020-0 0-0.001 0-0.001-0h0z"></path>
    <path fill="#ad1519" style="fill: var(--color3, #ad1519)" d="M18.033 14.353l0.020-0.027h0.047l-0.027 0.040z"></path>
    <path fill="#fff" style="fill: var(--color5, #fff)" d="M18.653 14.293q0-0.027 0.027-0.027t0.033 0.027q0 0.020-0.033 0.027c-0.015 0-0.027-0.012-0.027-0.027v0z"></path>
    <path fill="#058e6e" style="fill: var(--color6, #058e6e)" d="M18.833 14.327h0.047l0.020-0.013-0.013-0.020-0.093-0.013q-0.020 0-0.027 0.013 0 0.020 0.020 0.027z"></path>
    <path fill="#ad1519" style="fill: var(--color3, #ad1519)" d="M19.007 14.36l-0.013-0.033h-0.047l0.020 0.040z"></path>
    <path fill="#ad1519" style="fill: var(--color3, #ad1519)" d="M18.52 14.473c-0.011 0-0.023 0-0.035 0-0.129 0-0.255-0.015-0.376-0.043l0.011 0.002c0.118-0.030 0.253-0.047 0.392-0.047 0.003 0 0.006 0 0.009 0h-0q0.24 0 0.407 0.047-0.167 0.040-0.4 0.040z"></path>
    <path fill="#c8b100" style="fill: var(--color4, #c8b100)" d="M19.013 14.133l-0.007-0.020q-0.020 0-0.027 0.013l0.007 0.027q0.020 0 0.027-0.020z"></path>
    <path fill="#c8b100" style="fill: var(--color4, #c8b100)" d="M18.707 14.080q0-0.020-0.020-0.027l-0.013 0.020q0 0.020 0.013 0.027z"></path>
    <path fill="#c8b100" style="fill: var(--color4, #c8b100)" d="M18.347 14.080q0-0.020 0.013-0.027l0.020 0.020-0.013 0.027q-0.020 0-0.020-0.020z"></path>
    <path fill="#c8b100" style="fill: var(--color4, #c8b100)" d="M18.033 14.133l0.007-0.020q0.020 0 0.027 0.013l-0.007 0.027q-0.020 0-0.027-0.020z"></path>
    <path fill="#c8b100" style="fill: var(--color4, #c8b100)" d="M18.52 13.9l-0.053 0.033 0.040 0.087 0.013 0.007 0.020-0.007 0.040-0.087z"></path>
    <path fill="#c8b100" style="fill: var(--color4, #c8b100)" d="M18.4 14.033l0.027 0.033 0.087-0.027 0.007-0.013-0.007-0.013-0.087-0.020z"></path>
    <path fill="#c8b100" style="fill: var(--color4, #c8b100)" d="M18.64 14.033l-0.020 0.033-0.087-0.027-0.007-0.013v-0.013l0.093-0.020z"></path>
    <path fill="#c8b100" style="fill: var(--color4, #c8b100)" d="M18.167 13.933l-0.047 0.047 0.060 0.067 0.013 0.007 0.013-0.007 0.013-0.087z"></path>
    <path fill="#c8b100" style="fill: var(--color4, #c8b100)" d="M18.073 14.080l0.033 0.033 0.080-0.040v-0.013l-0.007-0.013-0.087-0.007z"></path>
    <path fill="#c8b100" style="fill: var(--color4, #c8b100)" d="M18.313 14.033l-0.020 0.040h-0.087l-0.013-0.013 0.007-0.020 0.080-0.040z"></path>
    <path fill="#c8b100" style="fill: var(--color4, #c8b100)" d="M17.987 14.093v0.040l-0.093 0.013-0.013-0.007v-0.013l0.067-0.060z"></path>
    <path fill="#c8b100" style="fill: var(--color4, #c8b100)" d="M18.16 14.060q0-0.033 0.033-0.033l0.033 0.033-0.033 0.027z"></path>
    <path fill="#c8b100" style="fill: var(--color4, #c8b100)" d="M18.88 13.933l0.047 0.047-0.060 0.067-0.013 0.007-0.007-0.007-0.020-0.087z"></path>
    <path fill="#c8b100" style="fill: var(--color4, #c8b100)" d="M18.973 14.080l-0.033 0.033-0.080-0.040v-0.013l0.007-0.013 0.087-0.007z"></path>
    <path fill="#c8b100" style="fill: var(--color4, #c8b100)" d="M18.733 14.033l0.020 0.040h0.087l0.013-0.013-0.007-0.020-0.080-0.040z"></path>
    <path fill="#c8b100" style="fill: var(--color4, #c8b100)" d="M19.047 14.093v0.040l0.093 0.013 0.013-0.007v-0.013l-0.067-0.060z"></path>
    <path fill="#c8b100" style="fill: var(--color4, #c8b100)" d="M18.493 14.027q0-0.020 0.033-0.027 0.027 0 0.027 0.027t-0.027 0.033z"></path>
    <path fill="#c8b100" style="fill: var(--color4, #c8b100)" d="M18.82 14.060q0.007-0.033 0.033-0.033t0.033 0.033q0 0.040-0.033 0.027z"></path>
    <path fill="#c8b100" style="fill: var(--color4, #c8b100)" d="M18.467 13.693q0.007-0.053 0.053-0.053 0.067 0 0.067 0.053c0 0.053-0.033 0.053-0.067 0.053-0.027-0.005-0.048-0.026-0.053-0.053l-0-0z"></path>
    <path fill="#c8b100" style="fill: var(--color4, #c8b100)" d="M18.567 13.673v0.040h-0.1v-0.040h0.027v-0.087h-0.033v-0.033h0.033v-0.040h0.040v0.040h0.040v0.040h-0.040v0.080h0.027z"></path>
    <path fill="#c8b100" style="fill: var(--color4, #c8b100)" d="M18.6 13.673v0.040h-0.16v-0.040h0.067v-0.087h-0.047v-0.033h0.040v-0.040h0.040v0.040h0.040v0.040h-0.040v0.080h0.067z"></path>
    <path fill="#c8b100" style="fill: var(--color4, #c8b100)" d="M17.867 14.147l-0.040-0.047-0.047-0.020q0-0.013 0.040-0.020 0.020 0 0.027 0.013v-0.013s0.020 0 0.027 0.020z"></path>
    <path fill="#c8b100" style="fill: var(--color4, #c8b100)" d="M17.867 14.133q0.020-0.020 0.033 0 0.027 0.013 0.007 0.033l-0.033-0.007q-0.013-0.013 0-0.033z"></path>
    <path fill="#c8b100" style="fill: var(--color4, #c8b100)" d="M19.167 14.147l0.040-0.047c0.013-0.013 0.047-0.020 0.047-0.020q0-0.013-0.040-0.020l-0.027 0.013v-0.013s-0.020 0-0.027 0.020v0.047z"></path>
    <path fill="#c8b100" style="fill: var(--color4, #c8b100)" d="M19.167 14.133q-0.013-0.020-0.033 0t-0.007 0.033l0.033-0.007q0.020-0.013 0.007-0.033z"></path>
    <path fill="#c8b100" style="fill: var(--color4, #c8b100)" d="M17.813 14.867h1.427v-0.367h-1.427z"></path>
    <path fill="#c8b100" style="fill: var(--color4, #c8b100)" d="M19.087 15.12h-1.127q0.067-0.027 0.067-0.080 0-0.067-0.067-0.087h1.127q-0.067 0.020-0.067 0.087 0 0.053 0.067 0.080z"></path>
    <path fill="#c8b100" style="fill: var(--color4, #c8b100)" d="M17.993 15.12h1.067q0.067 0 0.067 0.047t-0.067 0.053h-1.067q-0.067-0.007-0.067-0.053 0.007-0.067 0.067-0.053z"></path>
    <path fill="#c8b100" style="fill: var(--color4, #c8b100)" d="M17.993 14.867h1.067q0.067 0.007 0.067 0.047t-0.067 0.040h-1.067q-0.067 0-0.067-0.040t0.067-0.040z"></path>
    <path fill="#005bbf" style="fill: var(--color7, #005bbf)" d="M17.533 21.16q0.14 0 0.247-0.053c0.068-0.034 0.148-0.053 0.233-0.053 0.005 0 0.010 0 0.015 0h-0.001q0.147 0 0.253 0.053c0.107 0.053 0.153 0.053 0.247 0.053q0.153 0 0.253-0.053c0.068-0.034 0.148-0.053 0.233-0.053 0.003 0 0.005 0 0.008 0h-0c0.004-0 0.009-0 0.014-0 0.085 0 0.165 0.020 0.236 0.055l-0.003-0.001q0.107 0.053 0.253 0.053v0.16c-0.002 0-0.005 0-0.007 0-0.090 0-0.174-0.022-0.249-0.061l0.003 0.001c-0.068-0.034-0.148-0.053-0.233-0.053-0.005 0-0.010 0-0.015 0h0.001q-0.147 0-0.24 0.053-0.1 0.053-0.253 0.060c-0 0-0.001 0-0.001 0-0.090 0-0.174-0.022-0.249-0.061l0.003 0.001c-0.068-0.034-0.148-0.054-0.233-0.054-0.007 0-0.014 0-0.021 0l0.001-0c-0.004-0-0.009-0-0.014-0-0.085 0-0.165 0.020-0.236 0.055l0.003-0.001q-0.1 0.053-0.253 0.060v-0.16z"></path>
    <path fill="#ccc" style="fill: var(--color8, #ccc)" d="M17.533 21.32q0.14 0 0.247-0.060c0.107-0.060 0.153-0.053 0.247-0.053q0.147 0 0.253 0.053c0.107 0.053 0.153 0.060 0.247 0.060 0.002 0 0.005 0 0.007 0 0.090 0 0.174-0.022 0.249-0.061l-0.003 0.001c0.068-0.034 0.148-0.053 0.233-0.053 0.003 0 0.005 0 0.008 0h-0q0.153 0 0.247 0.053 0.107 0.053 0.253 0.060v0.153c-0.002 0-0.005 0-0.007 0-0.090 0-0.174-0.022-0.249-0.061l0.003 0.001c-0.065-0.030-0.14-0.047-0.22-0.047-0.009 0-0.019 0-0.028 0.001l0.001-0q-0.147 0-0.24 0.047-0.1 0.053-0.253 0.060c-0.005 0-0.011 0-0.017 0-0.084 0-0.163-0.022-0.232-0.062l0.002 0.001q-0.1-0.040-0.253-0.047c-0.008-0-0.017-0.001-0.027-0.001-0.080 0-0.155 0.017-0.223 0.049l0.003-0.001c-0.071 0.038-0.156 0.060-0.246 0.060-0.003 0-0.005-0-0.008-0h0v-0.153z"></path>
    <path fill="#005bbf" style="fill: var(--color7, #005bbf)" d="M17.533 21.467q0.14 0 0.247-0.053 0.107-0.040 0.247-0.047 0.147 0 0.253 0.047c0.107 0.047 0.153 0.060 0.247 0.060 0.002 0 0.005 0 0.007 0 0.090 0 0.174-0.022 0.249-0.061l-0.003 0.001c0.068-0.034 0.148-0.053 0.233-0.053 0.003 0 0.005 0 0.008 0h-0c0.004-0 0.009-0 0.014-0 0.085 0 0.165 0.020 0.236 0.055l-0.003-0.001q0.107 0.053 0.253 0.060v0.153c-0.002 0-0.005 0-0.007 0-0.090 0-0.174-0.022-0.249-0.061l0.003 0.001c-0.065-0.030-0.14-0.047-0.22-0.047-0.009 0-0.019 0-0.028 0.001l0.001-0q-0.147 0-0.24 0.047-0.1 0.060-0.253 0.060t-0.247-0.053c-0.068-0.034-0.148-0.054-0.233-0.054-0.007 0-0.014 0-0.021 0l0.001-0c-0.004-0-0.009-0-0.014-0-0.085 0-0.165 0.020-0.236 0.055l0.003-0.001q-0.1 0.053-0.253 0.053v-0.16z"></path>
    <path fill="#ccc" style="fill: var(--color8, #ccc)" d="M17.533 21.78c0.004 0 0.009 0 0.014 0 0.085 0 0.165-0.020 0.236-0.055l-0.003 0.001q0.107-0.053 0.247-0.053 0.147 0 0.253 0.053c0.107 0.053 0.153 0.053 0.247 0.053q0.153 0 0.253-0.060c0.064-0.030 0.14-0.047 0.219-0.047 0.007 0 0.015 0 0.022 0l-0.001-0q0.153 0 0.247 0.053c0.068 0.034 0.148 0.054 0.233 0.054 0.007 0 0.014-0 0.021-0l-0.001 0v-0.153c-0.002 0-0.005 0-0.007 0-0.090 0-0.174-0.022-0.249-0.061l0.003 0.001c-0.065-0.030-0.14-0.047-0.22-0.047-0.009 0-0.019 0-0.028 0.001l0.001-0q-0.147 0-0.24 0.047-0.1 0.053-0.253 0.060t-0.247-0.053c-0.068-0.034-0.148-0.054-0.233-0.054-0.007 0-0.014 0-0.021 0l0.001-0c-0.004-0-0.009-0-0.014-0-0.085 0-0.165 0.020-0.236 0.055l0.003-0.001q-0.1 0.053-0.253 0.053v0.153z"></path>
    <path fill="#005bbf" style="fill: var(--color7, #005bbf)" d="M17.533 21.933c0.004 0 0.009 0 0.014 0 0.085 0 0.165-0.020 0.236-0.055l-0.003 0.001q0.107-0.053 0.247-0.053 0.147 0 0.253 0.053c0.107 0.053 0.153 0.053 0.247 0.053 0.002 0 0.005 0 0.007 0 0.090 0 0.174-0.022 0.249-0.061l-0.003 0.001c0.064-0.030 0.14-0.047 0.219-0.047 0.007 0 0.015 0 0.022 0l-0.001-0q0.153 0 0.247 0.053 0.107 0.053 0.253 0.053v-0.153c-0.006 0-0.013 0-0.020 0-0.085 0-0.165-0.020-0.236-0.055l0.003 0.001c-0.068-0.034-0.148-0.053-0.233-0.053-0.005 0-0.010 0-0.015 0h0.001c-0.006-0-0.014-0-0.021-0-0.079 0-0.155 0.017-0.222 0.048l0.003-0.001c-0.071 0.038-0.156 0.060-0.246 0.060-0.003 0-0.005-0-0.008-0h0q-0.147 0-0.247-0.053t-0.253-0.053q-0.14 0-0.247 0.053c-0.107 0.053-0.153 0.053-0.253 0.053v0.153z"></path>
    <path fill="#c8b100" style="fill: var(--color4, #c8b100)" d="M19.087 20.533l-0.007 0.033c0 0.1 0.080 0.173 0.18 0.173h-1.467c0.1 0 0.18-0.080 0.18-0.173l-0.007-0.033z"></path>
    <path fill="#c8b100" style="fill: var(--color4, #c8b100)" d="M17.993 20.433h1.067q0.067 0 0.067 0.053 0 0.040-0.067 0.047h-1.067q-0.067 0-0.067-0.053 0.007-0.040 0.067-0.047z"></path>
    <path fill="#c8b100" style="fill: var(--color4, #c8b100)" d="M17.793 21.113h1.467v-0.38h-1.467z"></path>
    <path fill="#ad1519" style="fill: var(--color3, #ad1519)" d="M19.373 19.113c0.14 0.080 0.24 0.167 0.227 0.213q-0.013 0.053-0.12 0.107c-0.107 0.073-0.167 0.2-0.12 0.267-0.086-0.068-0.14-0.172-0.14-0.288 0-0.123 0.060-0.231 0.152-0.298l0.001-0.001z"></path>
    <path fill="#ccc" style="fill: var(--color8, #ccc)" d="M18.007 20.373h1.040v-5.107h-1.040v5.1z"></path>
    <path fill="#ad1519" style="fill: var(--color3, #ad1519)" d="M16.947 17.18c0.314-0.108 0.677-0.171 1.054-0.171 0.176 0 0.349 0.014 0.518 0.040l-0.019-0.002c0.62 0.107 1.093 0.353 1.060 0.56v0.013l0.233-0.547c0.040-0.22-0.487-0.5-1.173-0.613-0.174-0.030-0.374-0.047-0.579-0.047-0.012 0-0.024 0-0.036 0h0.002c-0.447 0-0.827 0.053-1.060 0.14z"></path>
    <path fill="#ad1519" style="fill: var(--color3, #ad1519)" d="M19.047 17.82c0.293-0.020 0.487-0.093 0.513-0.213q0.013-0.147-0.253-0.3l-0.26 0.020z"></path>
    <path fill="#ad1519" style="fill: var(--color3, #ad1519)" d="M18 17.433c-0.142 0.013-0.272 0.058-0.384 0.129l0.004-0.002v0.013c-0.033 0.067 0.12 0.2 0.387 0.36v-0.5z"></path>
    <path fill="#ad1519" style="fill: var(--color3, #ad1519)" d="M19.693 18.8c0.027-0.080-0.253-0.24-0.647-0.387-0.187-0.067-0.333-0.133-0.52-0.213-0.553-0.247-0.96-0.527-0.907-0.627v-0.013c-0.027 0.027-0.067 0.533-0.067 0.533-0.053 0.087 0.32 0.367 0.827 0.607 0.16 0.080 0.507 0.2 0.667 0.267 0.287 0.093 0.58 0.287 0.553 0.353l0.093-0.513z"></path>
    <path fill="#c8b100" style="fill: var(--color4, #c8b100)" d="M17.593 16.96l0.14-0.44h-0.033l-0.033 0.007-0.093 0.32q-0.107-0.133-0.18-0.273l-0.067 0.013h-0.067l0.267 0.38h0.033zM17.993 16.52h-0.12v0.413h0.28v-0.047h-0.173zM18.447 16.587l0.133 0.020v-0.047l-0.387-0.033v0.053h0.133l-0.027 0.373h0.107l0.033-0.36zM18.6 16.993l0.107 0.027 0.047-0.193 0.040 0.080 0.053 0.14 0.067 0.013q0.040 0 0.067 0.020l-0.020-0.047-0.087-0.193q0.107 0 0.14-0.080 0.020-0.053-0.047-0.1-0.053-0.027-0.113-0.033l-0.16-0.033zM18.8 16.647c0.047 0.013 0.1 0.020 0.1 0.067v0.033q-0.033 0.087-0.133 0.060zM19.333 17.113l-0.013 0.133 0.053 0.033 0.060 0.033 0.033-0.467-0.047-0.020-0.407 0.253 0.033 0.020 0.027 0.013 0.113-0.080 0.153 0.087zM19.22 17.013l0.133-0.093-0.013 0.153z"></path>
    <path fill="#ad1519" style="fill: var(--color3, #ad1519)" d="M13.713 11.693c0.42 0 0.8 0.067 1.047 0.16 0.239 0.101 0.518 0.16 0.81 0.16 0.058 0 0.115-0.002 0.171-0.007l-0.007 0c0.18 0 0.433 0.053 0.687 0.16 0.19 0.082 0.353 0.187 0.495 0.315l-0.002-0.002-0.1 0.093-0.027 0.253-0.273 0.313-0.133 0.12-0.333 0.26-0.167 0.013-0.047 0.14-2.107-0.247-2.113 0.247-0.053-0.14-0.167-0.013-0.327-0.267-0.133-0.113-0.273-0.313-0.033-0.253-0.1-0.093c0.143-0.126 0.308-0.231 0.488-0.309l0.012-0.005c0.199-0.095 0.432-0.153 0.678-0.16l0.002-0q0.2 0.020 0.44-0.013c0.197-0.022 0.378-0.069 0.547-0.138l-0.013 0.005q0.373-0.16 1.033-0.167z"></path>
    <path fill="#c8b100" style="fill: var(--color4, #c8b100)" d="M13.747 14.473c-0.787 0-1.493-0.093-1.993-0.24-0.031-0.006-0.055-0.033-0.055-0.066 0-0.005 0.001-0.010 0.002-0.015l-0 0q0-0.053 0.053-0.080c0.557-0.153 1.197-0.241 1.857-0.241 0.048 0 0.096 0 0.143 0.001l-0.007-0c0.78 0 1.487 0.093 1.987 0.24 0.032 0.013 0.053 0.044 0.053 0.080s-0.022 0.067-0.053 0.080l-0.001 0c-0.5 0.147-1.2 0.24-1.987 0.24"></path>
    <path fill="#ad1519" style="fill: var(--color3, #ad1519)" d="M13.74 14.373c-0.707 0-1.347-0.080-1.833-0.207 0.487-0.133 1.127-0.2 1.833-0.207 0.029-0 0.063-0.001 0.098-0.001 0.618 0 1.219 0.073 1.795 0.211l-0.052-0.011c-0.487 0.133-1.133 0.213-1.84 0.213z"></path>
    <path fill="#c8b100" style="fill: var(--color4, #c8b100)" d="M13.733 13.827c-0.024-0-0.053-0-0.081-0-0.683 0-1.344 0.095-1.97 0.273l0.051-0.012c0.040-0.020 0.033-0.067-0.020-0.2-0.067-0.167-0.16-0.16-0.16-0.16 0.553-0.167 1.333-0.267 2.187-0.267 0.036-0.001 0.079-0.001 0.122-0.001 0.739 0 1.454 0.098 2.135 0.281l-0.057-0.013s-0.1-0.007-0.167 0.153q-0.080 0.187-0.013 0.2c-0.5-0.147-1.227-0.247-2.020-0.247"></path>
    <path fill="#c8b100" style="fill: var(--color4, #c8b100)" d="M13.74 13.46c-0.86 0-1.633 0.1-2.187 0.267-0.007 0.003-0.015 0.004-0.024 0.004-0.029 0-0.053-0.018-0.063-0.044l-0-0c-0.002-0.007-0.004-0.014-0.004-0.022 0-0.031 0.021-0.057 0.050-0.065l0-0c0.633-0.178 1.359-0.281 2.11-0.281 0.041 0 0.082 0 0.123 0.001l-0.006-0c0.88 0 1.68 0.113 2.233 0.28q0.067 0.027 0.047 0.087t-0.087 0.040c-0.56-0.167-1.333-0.267-2.193-0.267"></path>
    <path fill="#fff" style="fill: var(--color5, #fff)" d="M13.133 13.653q0-0.060 0.067-0.067 0.060 0.007 0.067 0.067 0 0.080-0.067 0.067c-0.037 0-0.067-0.030-0.067-0.067v0"></path>
    <path fill="#ad1519" style="fill: var(--color3, #ad1519)" d="M13.74 13.707h-0.207c-0.037 0-0.067-0.030-0.067-0.067s0.030-0.067 0.067-0.067v0h0.427q0.060 0.007 0.067 0.067 0 0.080-0.067 0.067h-0.213"></path>
    <path fill="#058e6e" style="fill: var(--color6, #058e6e)" d="M12.687 13.767l-0.153 0.013q-0.060 0-0.080-0.053c-0-0.002-0-0.004-0-0.007 0-0.037 0.030-0.067 0.067-0.067 0 0 0 0 0 0h-0l0.147-0.020 0.16-0.020q0.060 0 0.073 0.060 0 0.060-0.060 0.067l-0.153 0.027"></path>
    <path fill="#fff" style="fill: var(--color5, #fff)" d="M12.067 13.78q0.007-0.067 0.073-0.067t0.067 0.067-0.067 0.067c-0.037 0-0.067-0.030-0.067-0.067v0"></path>
    <path fill="#ad1519" style="fill: var(--color3, #ad1519)" d="M11.6 13.9l0.080-0.107 0.22 0.027-0.173 0.133-0.12-0.053"></path>
    <path fill="#058e6e" style="fill: var(--color6, #058e6e)" d="M14.8 13.767l0.153 0.013q0.060 0 0.073-0.053c0-0.002 0-0.005 0-0.007 0-0.035-0.026-0.063-0.060-0.066l-0-0-0.147-0.020-0.16-0.020c-0.002-0-0.005-0-0.007-0-0.035 0-0.063 0.026-0.066 0.060l-0 0q0 0.060 0.060 0.067l0.153 0.027"></path>
    <path fill="#fff" style="fill: var(--color5, #fff)" d="M14.22 13.653q0-0.060 0.067-0.067c0.067-0.007 0.067 0.033 0.067 0.067s-0.027 0.067-0.067 0.067c-0.037 0-0.067-0.030-0.067-0.067v0M15.273 13.78q0.007-0.067 0.067-0.067t0.073 0.067q0 0.060-0.067 0.067c-0.037 0-0.067-0.030-0.067-0.067v0"></path>
    <path fill="#ad1519" style="fill: var(--color3, #ad1519)" d="M15.88 13.9l-0.073-0.107-0.22 0.027 0.173 0.133 0.12-0.053"></path>
    <path fill="#c8b100" style="fill: var(--color4, #c8b100)" d="M12.153 12.253l0.093 0.067 0.133-0.213c-0.147-0.081-0.245-0.234-0.245-0.411 0-0.024 0.002-0.048 0.005-0.072l-0 0.003c0.013-0.273 0.347-0.507 0.78-0.507q0.333 0.007 0.567 0.16l0.013-0.12c-0.158-0.088-0.346-0.14-0.547-0.14-0.012 0-0.024 0-0.035 0.001l0.002-0c-0.493 0-0.88 0.273-0.9 0.607-0.002 0.017-0.003 0.037-0.003 0.057 0 0.179 0.078 0.339 0.202 0.449l0.001 0.001z"></path>
    <path fill="#c8b100" style="fill: var(--color4, #c8b100)" d="M12.16 12.253c-0.158-0.107-0.262-0.284-0.267-0.486v-0.001q0.013-0.333 0.353-0.533c-0.135 0.107-0.221 0.27-0.227 0.452l-0 0.001c0 0.177 0.077 0.336 0.199 0.446l0.001 0.001z"></path>
    <path fill="#c8b100" style="fill: var(--color4, #c8b100)" d="M10.673 12.473c-0.094-0.104-0.151-0.242-0.153-0.393v-0q0-0.133 0.067-0.253c0.133-0.28 0.56-0.48 1.067-0.48q0.2 0 0.393 0.040l-0.067 0.093c-0.091-0.017-0.196-0.027-0.304-0.027-0.008 0-0.016 0-0.024 0h0.001c-0.467 0-0.853 0.18-0.967 0.42-0.029 0.059-0.047 0.129-0.047 0.203 0 0.001 0 0.002 0 0.003v-0c-0 0.002-0 0.003-0 0.005 0 0.149 0.070 0.282 0.179 0.367l0.001 0.001-0.173 0.273-0.087-0.067z"></path>
    <path fill="#c8b100" style="fill: var(--color4, #c8b100)" d="M10.847 11.553c-0.112 0.067-0.202 0.159-0.265 0.27l-0.002 0.004c-0.037 0.074-0.059 0.161-0.060 0.253v0q0.007 0.233 0.153 0.393l-0.1 0.167c-0.095-0.115-0.153-0.263-0.153-0.425 0-0.003 0-0.006 0-0.008v0c0-0.267 0.167-0.5 0.427-0.653z"></path>
    <path fill="#c8b100" style="fill: var(--color4, #c8b100)" d="M13.733 10.96c0.113 0 0.213 0.073 0.233 0.173q0.027 0.14 0.027 0.3v0.073c0.007 0.22 0.040 0.42 0.087 0.54l-0.347 0.333-0.347-0.333c0.047-0.12 0.080-0.32 0.087-0.54v-0.073q0-0.16 0.027-0.3c0.020-0.1 0.12-0.173 0.233-0.173z"></path>
    <path fill="#c8b100" style="fill: var(--color4, #c8b100)" d="M13.733 11.067q0.107 0.007 0.12 0.093 0.020 0.12 0.027 0.28v0.067q0.013 0.333 0.080 0.513l-0.227 0.213-0.227-0.213q0.067-0.18 0.080-0.513v-0.067l0.027-0.28c0.017-0.052 0.064-0.090 0.12-0.093l0-0z"></path>
    <path fill="#c8b100" style="fill: var(--color4, #c8b100)" d="M15.313 12.253l-0.087 0.067-0.133-0.213c0.144-0.081 0.24-0.233 0.24-0.408 0-0.004-0-0.008-0-0.013v0.001-0.060c-0.013-0.273-0.353-0.507-0.78-0.507-0.007-0-0.015-0-0.024-0-0.202 0-0.39 0.060-0.547 0.163l0.004-0.002-0.013-0.12c0.158-0.088 0.346-0.14 0.547-0.14 0.012 0 0.024 0 0.035 0.001l-0.002-0c0.493 0 0.88 0.273 0.893 0.607 0.002 0.017 0.003 0.037 0.003 0.057 0 0.179-0.078 0.339-0.202 0.449l-0.001 0.001z"></path>
    <path fill="#c8b100" style="fill: var(--color4, #c8b100)" d="M15.307 12.253c0.161-0.106 0.267-0.283 0.273-0.486l0-0.001c0-0.213-0.14-0.407-0.353-0.533 0.135 0.107 0.221 0.27 0.227 0.452l0 0.001c-0.004 0.179-0.085 0.338-0.212 0.446l-0.001 0.001z"></path>
    <path fill="#c8b100" style="fill: var(--color4, #c8b100)" d="M16.8 12.473c0.091-0.105 0.147-0.242 0.147-0.393 0-0 0-0 0-0v0c-0.001-0.092-0.023-0.179-0.062-0.257l0.002 0.004c-0.133-0.28-0.56-0.48-1.067-0.48-0.003 0-0.006-0-0.009-0-0.139 0-0.274 0.015-0.404 0.042l0.013-0.002 0.067 0.093c0.090-0.017 0.193-0.027 0.299-0.027 0.012 0 0.024 0 0.036 0l-0.002-0c0.467 0 0.853 0.18 0.96 0.42q0.047 0.1 0.047 0.207c0 0.003 0 0.007 0 0.010 0 0.146-0.067 0.277-0.173 0.362l-0.001 0.001 0.167 0.273 0.087-0.067z"></path>
    <path fill="#c8b100" style="fill: var(--color4, #c8b100)" d="M16.62 11.553c0.112 0.067 0.202 0.159 0.265 0.27l0.002 0.004c0.037 0.074 0.059 0.161 0.060 0.253v0c-0.002 0.152-0.060 0.289-0.154 0.394l0-0.001 0.107 0.167c0.095-0.115 0.153-0.263 0.153-0.425 0-0.003-0-0.006-0-0.008v0c0-0.267-0.173-0.5-0.433-0.653z"></path>
    <path fill="#fff" style="fill: var(--color5, #fff)" d="M13.613 12.093q0.007-0.113 0.12-0.12c0.113-0.007 0.127 0.053 0.127 0.12s-0.060 0.113-0.127 0.113c-0.062-0.006-0.111-0.053-0.12-0.113l-0-0.001z"></path>
    <path fill="#fff" style="fill: var(--color5, #fff)" d="M13.613 11.867q0.007-0.113 0.12-0.12c0.113-0.007 0.127 0.053 0.127 0.12s-0.060 0.113-0.127 0.113c-0.062-0.006-0.111-0.053-0.12-0.113l-0-0.001M13.64 11.62q0.007-0.080 0.093-0.087 0.093 0.007 0.1 0.087-0.007 0.087-0.1 0.093c-0.093 0.007-0.093-0.040-0.093-0.093M13.667 11.4q0-0.060 0.067-0.067c0.067-0.007 0.067 0.033 0.067 0.067s-0.027 0.067-0.067 0.067c-0.037 0-0.067-0.030-0.067-0.067v0M13.68 11.213q0.007-0.053 0.053-0.053t0.060 0.053q0 0.047-0.060 0.053c-0.027-0.005-0.048-0.026-0.053-0.053l-0-0"></path>
    <path fill="#c8b100" style="fill: var(--color4, #c8b100)" d="M13.747 12.787l0.080 0.013c-0.009 0.028-0.015 0.060-0.015 0.093 0 0.169 0.137 0.307 0.307 0.307 0.003 0 0.006-0 0.008-0h-0c0.131-0.005 0.242-0.085 0.293-0.198l0.001-0.002c0.007 0 0.033-0.113 0.047-0.113s0.007 0.12 0.013 0.113c0.020 0.153 0.16 0.253 0.313 0.253 0.002 0 0.005 0 0.008 0 0.169 0 0.307-0.137 0.307-0.307 0-0.009-0-0.019-0.001-0.028l0 0.001 0.1-0.1 0.047 0.133c-0.017 0.034-0.027 0.074-0.027 0.117 0 0.004 0 0.007 0 0.011v-0.001c0.007 0.156 0.136 0.28 0.293 0.28 0.002 0 0.005-0 0.007-0h-0q0.167 0 0.253-0.127l0.060-0.080v0.1c0 0.1 0.040 0.187 0.133 0.2 0 0 0.113 0.007 0.267-0.107 0.14-0.113 0.22-0.207 0.22-0.207l0.013 0.113s-0.12 0.187-0.253 0.267c-0.067 0.040-0.18 0.087-0.267 0.067q-0.14-0.033-0.2-0.173c-0.063 0.039-0.138 0.063-0.219 0.067l-0.001 0c-0.175-0.002-0.327-0.1-0.405-0.244l-0.001-0.002c-0.085 0.089-0.205 0.145-0.338 0.145-0.142 0-0.27-0.064-0.355-0.164l-0.001-0.001c-0.081 0.073-0.188 0.118-0.306 0.12h-0c-0.157-0.001-0.295-0.079-0.379-0.199l-0.001-0.001c-0.085 0.121-0.223 0.199-0.38 0.2h-0c-0 0-0.001 0-0.001 0-0.12 0-0.23-0.046-0.313-0.12l0 0c-0.086 0.101-0.213 0.165-0.356 0.165-0.133 0-0.253-0.055-0.338-0.144l-0-0c-0.078 0.145-0.227 0.242-0.399 0.247h-0.001c-0.084-0.003-0.162-0.027-0.229-0.068l0.002 0.001q-0.053 0.14-0.2 0.18c-0.080 0.013-0.193-0.033-0.267-0.073-0.133-0.080-0.253-0.267-0.253-0.267l0.013-0.113s0.080 0.093 0.227 0.207 0.26 0.107 0.26 0.107c0.093-0.013 0.133-0.1 0.133-0.2v-0.1l0.067 0.080c0.057 0.076 0.146 0.127 0.246 0.133l0.001 0c0.167 0 0.3-0.133 0.3-0.287 0-0.005 0.001-0.010 0.001-0.016 0-0.043-0.010-0.083-0.028-0.119l0.001 0.002 0.053-0.127 0.1 0.1v0.040c0 0.16 0.133 0.293 0.307 0.293 0.16 0 0.293-0.1 0.313-0.253 0 0 0-0.107 0.013-0.113s0.040 0.113 0.047 0.107c0.050 0.12 0.165 0.203 0.3 0.207h0c0.002 0 0.005 0 0.008 0 0.169 0 0.307-0.137 0.307-0.307 0-0.033-0.005-0.066-0.015-0.096l0.001 0.002 0.080-0.013"></path>
    <path fill="#fff" style="fill: var(--color5, #fff)" d="M15.907 13.18q0.027-0.093-0.040-0.12-0.060-0.013-0.1 0.073-0.027 0.093 0.040 0.12 0.060 0.013 0.1-0.073M14.54 12.913c0-0.053-0.020-0.107-0.067-0.107q-0.053 0-0.080 0.093 0 0.087 0.060 0.107 0.067-0.007 0.087-0.093M12.947 12.913c0-0.053 0.027-0.107 0.067-0.107q0.067 0 0.080 0.093 0 0.087-0.060 0.107-0.067-0.007-0.080-0.093M11.58 13.18q-0.020-0.093 0.040-0.12 0.067-0.013 0.1 0.073t-0.033 0.12q-0.067 0.013-0.107-0.073"></path>
    <path fill="#c8b100" style="fill: var(--color4, #c8b100)" d="M12.18 12.267c0.071 0.044 0.123 0.111 0.146 0.191l0.001 0.002s0-0.020 0.040-0.040 0.067-0.020 0.067-0.020l-0.007 0.087-0.020 0.147-0.047 0.107c-0.022-0.017-0.051-0.028-0.082-0.028-0.006 0-0.013 0-0.019 0.001l0.001-0c-0.034 0.009-0.062 0.031-0.080 0.059l-0 0.001s-0.047-0.040-0.080-0.087l-0.073-0.133-0.047-0.073s0.033-0.013 0.073 0q0.060 0.007 0.053 0.013c-0.001-0.008-0.001-0.016-0.001-0.025 0-0.076 0.025-0.146 0.068-0.202l-0.001 0.001M12.2 12.92l-0.040-0.067q0-0.047 0.020-0.080s-0.060-0.033-0.12-0.047c-0.047-0.013-0.133-0.013-0.153-0.013h-0.067l0.013 0.033 0.033 0.047c-0.083 0.019-0.153 0.067-0.199 0.132l-0.001 0.001c0.055 0.043 0.126 0.068 0.202 0.068 0.011 0 0.022-0.001 0.033-0.002l-0.001 0-0.013 0.053v0.040l0.067-0.027c0.020-0.007 0.1-0.033 0.133-0.067 0.053-0.027 0.1-0.073 0.1-0.073M12.387 12.887l0.013-0.073-0.040-0.067 0.093-0.087 0.133-0.060 0.073-0.027v0.040l-0.013 0.053c0.008-0.001 0.016-0.001 0.025-0.001 0.076 0 0.146 0.025 0.202 0.068l-0.001-0.001c-0.046 0.065-0.113 0.113-0.191 0.133l-0.002 0.001 0.047 0.080h-0.067c-0.027 0-0.107 0-0.153-0.013l-0.12-0.047"></path>
    <path fill="#ad1519" style="fill: var(--color3, #ad1519)" d="M12.147 12.827c0-0.067 0.067-0.133 0.133-0.133s0.147 0.067 0.147 0.133c0 0.073-0.067 0.133-0.14 0.133-0.002 0-0.004 0-0.007 0-0.074 0-0.133-0.060-0.133-0.133 0-0 0-0 0-0v0"></path>
    <path fill="#c8b100" style="fill: var(--color4, #c8b100)" d="M13.74 12.053c0.068 0.063 0.114 0.148 0.126 0.245l0 0.002s0.013-0.020 0.060-0.033q0.073-0.020 0.080-0.013l-0.033 0.093-0.053 0.16-0.067 0.113c-0.025-0.029-0.061-0.047-0.102-0.047-0.004 0-0.008 0-0.012 0.001l0.001-0q-0.067 0-0.107 0.047-0.013-0.007-0.067-0.113l-0.053-0.16-0.033-0.093 0.080 0.013q0.067 0.027 0.060 0.033 0.013-0.147 0.12-0.247"></path>
    <path fill="#c8b100" style="fill: var(--color4, #c8b100)" d="M13.64 12.787c-0.019-0.021-0.031-0.049-0.033-0.080l-0-0q0-0.053 0.027-0.087s-0.053-0.047-0.12-0.067c-0.047-0.027-0.133-0.047-0.167-0.047l-0.080-0.013 0.013 0.040 0.027 0.060c-0.097 0.008-0.182 0.050-0.247 0.113l0-0q0.107 0.1 0.247 0.107l-0.027 0.067-0.013 0.040 0.080-0.013c0.027-0.007 0.12-0.027 0.167-0.047 0.067-0.027 0.127-0.067 0.127-0.067M13.84 12.793c0.022-0.024 0.035-0.056 0.035-0.091 0-0.031-0.011-0.060-0.029-0.083l0 0s0.060-0.047 0.12-0.067c0.049-0.023 0.105-0.040 0.164-0.046l0.002-0 0.080-0.020-0.007 0.047-0.027 0.060q0.147 0.013 0.24 0.113c-0.063 0.059-0.146 0.099-0.239 0.107l-0.002 0 0.033 0.107-0.080-0.013-0.167-0.047c-0.067-0.027-0.12-0.067-0.12-0.067M15.313 12.26c-0.072 0.045-0.124 0.115-0.146 0.198l-0.001 0.002-0.047-0.040-0.067-0.020 0.013 0.087c0 0.020 0 0.087 0.020 0.147q0.027 0.107 0.040 0.107c0.022-0.017 0.051-0.028 0.082-0.028 0.006 0 0.013 0 0.019 0.001l-0.001-0q0.060 0.013 0.087 0.060l0.073-0.087q0.067-0.093 0.073-0.133l0.047-0.073s-0.027-0.013-0.067 0l-0.067 0.013c0.001-0.008 0.001-0.016 0.001-0.025 0-0.076-0.025-0.146-0.068-0.202l0.001 0.001M15.287 12.92q0.033-0.027 0.040-0.067l-0.013-0.080s0.053-0.033 0.113-0.047c0.047-0.013 0.133-0.013 0.153-0.013h0.073l-0.020 0.033-0.027 0.047c0.080 0.020 0.148 0.068 0.193 0.132l0.001 0.001c-0.055 0.043-0.126 0.068-0.202 0.068-0.011 0-0.022-0.001-0.033-0.002l0.001 0 0.013 0.053v0.040l-0.067-0.027c-0.020-0.007-0.093-0.033-0.133-0.067-0.053-0.027-0.093-0.073-0.093-0.073M15.1 12.887l-0.013-0.073q0-0.047 0.040-0.067s-0.040-0.053-0.093-0.087c-0.040-0.027-0.113-0.053-0.133-0.060l-0.067-0.027v0.040l0.013 0.053c-0.009-0.001-0.020-0.001-0.031-0.001-0.076 0-0.147 0.026-0.203 0.069l0.001-0.001q0.067 0.093 0.2 0.133l-0.033 0.047-0.020 0.033h0.067c0.027 0 0.113 0 0.153-0.013l0.12-0.047"></path>
    <path fill="#ad1519" style="fill: var(--color3, #ad1519)" d="M15.067 12.827c0-0.067 0.067-0.133 0.133-0.133s0.14 0.067 0.14 0.133c0 0.074-0.060 0.133-0.133 0.133v0c-0.002 0-0.004 0-0.007 0-0.074 0-0.133-0.060-0.133-0.133 0-0 0-0 0-0v0M16.613 13.12c-0.027-0.033-0.093-0.027-0.147 0.013q-0.080 0.080-0.033 0.147 0.067 0.053 0.153-0.020c0.047-0.040 0.067-0.107 0.033-0.133"></path>
    <path fill="#c8b100" style="fill: var(--color4, #c8b100)" d="M16.42 13.2l0.047-0.067c0.047-0.040 0.12-0.047 0.153-0.013l0.007 0.013s0.067-0.133 0.153-0.173 0.227-0.033 0.227-0.033c-0.007-0.102-0.090-0.183-0.193-0.187h-0c-0.003-0-0.007-0-0.011-0-0.059 0-0.113 0.026-0.149 0.067l-0 0-0.013-0.067s-0.087 0.020-0.127 0.12 0 0.24 0 0.24-0.020-0.060-0.047-0.1c-0.045-0.044-0.098-0.080-0.157-0.105l-0.003-0.001-0.087-0.047-0.007 0.033v0.053c-0.016-0.002-0.035-0.003-0.054-0.003-0.069 0-0.136 0.013-0.196 0.037l0.004-0.001c0.038 0.066 0.095 0.117 0.164 0.146l0.002 0.001-0.053 0.047-0.027 0.033 0.087 0.013 0.167 0.013 0.113-0.013M11.067 13.207q0-0.040-0.047-0.067c-0.047-0.047-0.113-0.053-0.147-0.020l-0.013 0.020s-0.067-0.133-0.153-0.18-0.22-0.033-0.22-0.033c0.007-0.1 0.086-0.18 0.186-0.187l0.001-0q0.107 0 0.16 0.067l0.013-0.067s0.087 0.020 0.133 0.12c0.033 0.1-0.007 0.24-0.007 0.24s0.020-0.060 0.053-0.1c0.045-0.044 0.098-0.080 0.157-0.105l0.003-0.001 0.087-0.047v0.087c0.016-0.002 0.035-0.003 0.054-0.003 0.069 0 0.136 0.013 0.196 0.037l-0.004-0.001c-0.038 0.066-0.095 0.117-0.164 0.146l-0.002 0.001 0.053 0.047 0.027 0.033-0.080 0.013-0.173 0.013-0.113-0.013"></path>
    <path fill="#ad1519" style="fill: var(--color3, #ad1519)" d="M10.867 13.12q0.067-0.047 0.16 0.020 0.080 0.067 0.027 0.133c-0.033 0.040-0.1 0.033-0.147-0.013s-0.067-0.107-0.033-0.133M13.607 12.707q0.013-0.12 0.133-0.133c0.12-0.013 0.14 0.060 0.14 0.133 0 0.067-0.067 0.133-0.133 0.133-0.002 0-0.004 0-0.007 0-0.074 0-0.133-0.060-0.133-0.133 0-0 0-0 0-0v0"></path>
    <path fill="#005bbf" style="fill: var(--color7, #005bbf)" d="M13.453 10.707c0-0.147 0.127-0.267 0.287-0.267s0.28 0.12 0.28 0.267-0.127 0.267-0.287 0.267c-0.004 0-0.009 0-0.013 0-0.147 0-0.267-0.119-0.267-0.267 0-0 0-0 0-0v0"></path>
    <path fill="#c8b100" style="fill: var(--color4, #c8b100)" d="M13.667 9.953v0.147h-0.16v0.147h0.153v0.42h-0.193l-0.013 0.040q0 0.060 0.020 0.107h0.527q0.020-0.047 0.020-0.107l-0.013-0.040h-0.187v-0.42h0.153v-0.147h-0.153v-0.147z"></path>
    <path fill="#ccc" style="fill: var(--color8, #ccc)" d="M13.767 22.040c-0.861-0.003-1.675-0.204-2.399-0.561l0.032 0.014c-0.506-0.254-0.848-0.766-0.853-1.359v-2.134h6.427v2.133c-0.006 0.594-0.348 1.106-0.845 1.356l-0.009 0.004c-0.687 0.343-1.496 0.544-2.353 0.547h-0.001z"></path>
    <path fill="#ccc" style="fill: var(--color8, #ccc)" d="M13.753 18h3.22v-3.567h-3.22z"></path>
    <path fill="#ad1519" style="fill: var(--color3, #ad1519)" d="M13.753 20.133c0 0.84-0.713 1.527-1.6 1.527s-1.613-0.687-1.613-1.533v-2.133h3.213v2.133z"></path>
    <path fill="#c8b100" style="fill: var(--color4, #c8b100)" d="M11.24 21.393c0.1 0.053 0.24 0.133 0.387 0.173l-0.007-3.647h-0.38z"></path>
    <path fill="#c8b100" style="fill: var(--color4, #c8b100)" d="M10.533 20.107c0.005 0.382 0.142 0.73 0.369 1.003l-0.002-0.003v-3.167h-0.36z"></path>
    <path fill="#c7b500" style="fill: var(--color9, #c7b500)" d="M11.96 21.647c0.056 0.006 0.121 0.010 0.187 0.010s0.131-0.004 0.195-0.010l-0.008 0.001v-3.727h-0.373v3.733z"></path>
    <path fill="#c8b100" style="fill: var(--color4, #c8b100)" d="M12.667 21.567c0.147-0.037 0.276-0.094 0.392-0.17l-0.005 0.003v-3.48h-0.387z"></path>
    <path fill="#ad1519" style="fill: var(--color3, #ad1519)" d="M10.54 18h3.213v-3.567h-3.22z"></path>
    <path fill="#c8b100" style="fill: var(--color4, #c8b100)" d="M13.4 21.067c0.16-0.133 0.307-0.453 0.36-0.813l0.007-2.333h-0.367l0.007 3.153z"></path>
    <path fill="#ad1519" style="fill: var(--color3, #ad1519)" d="M16.973 18v2.133c0 0.84-0.72 1.527-1.607 1.527s-1.613-0.687-1.613-1.533v-2.133h3.22z"></path>
    <path fill="#c8b100" style="fill: var(--color4, #c8b100)" d="M14.34 19.607l0.007 0.033q-0.007 0.067-0.073 0.067c-0.002 0-0.004 0-0.007 0-0.037 0-0.067-0.030-0.067-0.067 0-0 0-0 0-0v0-0.033h-0.1c-0.002 0.010-0.003 0.021-0.003 0.032 0 0.077 0.052 0.141 0.122 0.161l0.001 0v0.26h0.107v-0.26c0.051-0.019 0.091-0.057 0.113-0.105l0.001-0.001h0.293v-0.080zM15.793 19.607v0.080h-0.267l-0.020 0.040 0.307 0.347-0.080 0.067-0.307-0.353-0.013 0.007v0.58h-0.107v-0.573h-0.013l-0.32 0.347-0.080-0.067 0.313-0.353-0.013-0.027h-0.267v-0.1h0.867zM15.967 19.607v0.080h0.293q0.033 0.080 0.113 0.107v0.26h0.107v-0.253c0.065-0.028 0.111-0.088 0.12-0.159l0-0.001v-0.033h-0.107l0.007 0.033q-0.007 0.067-0.067 0.067-0.073 0-0.080-0.067l0.007-0.033zM15.52 21.080c0.092-0.014 0.175-0.037 0.254-0.069l-0.007 0.003 0.053 0.093c-0.083 0.036-0.179 0.064-0.28 0.079l-0.007 0.001c-0.026 0.074-0.093 0.127-0.173 0.133l-0.001 0c-0.078-0.009-0.141-0.061-0.166-0.132l-0-0.001c-0.114-0.014-0.217-0.042-0.315-0.083l0.008 0.003 0.053-0.093q0.133 0.053 0.267 0.067c0.023-0.039 0.057-0.069 0.099-0.086l0.001-0v-0.447h0.107v0.447q0.073 0.020 0.107 0.093zM14.787 20.933l-0.053 0.093c-0.092-0.059-0.171-0.128-0.239-0.205l-0.001-0.001q-0.093 0.020-0.167-0.033c-0.037-0.030-0.061-0.075-0.061-0.126 0-0.041 0.016-0.079 0.041-0.108l0.007-0.007c-0.044-0.093-0.075-0.202-0.086-0.316l-0-0.004h0.113c0.009 0.098 0.032 0.189 0.069 0.272l-0.002-0.006q0.053 0 0.093 0.013l0.273-0.3 0.087 0.067-0.273 0.3q0.053 0.1-0.007 0.187c0.060 0.066 0.128 0.123 0.203 0.171l0.004 0.002zM14.387 20.613q0.040-0.047 0.1 0c0.060 0.047 0.033 0.067 0.007 0.093-0.012 0.018-0.033 0.030-0.056 0.030-0.020 0-0.039-0.009-0.051-0.023l-0-0c-0.014-0.012-0.023-0.030-0.023-0.050s0.009-0.038 0.023-0.050l0-0zM14.24 20.313l-0.107-0.020-0.020-0.287 0.113-0.040v0.167q0 0.093 0.013 0.18zM14.333 19.96l0.113 0.027v0.147c0-0.053 0.020 0.14 0.020 0.14l-0.113 0.040-0.020-0.18zM14.707 20.873c0.091 0.073 0.197 0.131 0.313 0.171l0.008 0.002 0.027-0.107c-0.102-0.032-0.19-0.078-0.269-0.135l0.003 0.002zM14.653 20.967c0.092 0.071 0.198 0.13 0.312 0.171l0.008 0.002-0.080 0.073c-0.102-0.037-0.19-0.082-0.271-0.136l0.005 0.003zM14.8 20.34l0.107 0.047 0.2-0.22-0.067-0.093zM14.713 20.273l-0.067-0.093 0.2-0.22 0.107 0.047zM15.92 20.933l0.053 0.093c0.092-0.059 0.17-0.128 0.239-0.205l0.001-0.001q0.093 0.020 0.167-0.033c0.038-0.030 0.061-0.075 0.061-0.126 0-0.041-0.016-0.079-0.041-0.108l-0.007-0.007c0.044-0.093 0.075-0.202 0.086-0.316l0-0.004h-0.113c-0.009 0.098-0.032 0.189-0.069 0.272l0.002-0.006-0.093 0.013-0.273-0.3-0.087 0.067 0.273 0.3c-0.017 0.025-0.027 0.056-0.027 0.089 0 0.037 0.013 0.071 0.034 0.098l-0-0c-0.060 0.066-0.128 0.123-0.203 0.171l-0.004 0.002zM16.32 20.613c-0.012-0.014-0.030-0.023-0.050-0.023s-0.038 0.009-0.050 0.023l-0 0c-0.014 0.012-0.023 0.030-0.023 0.050 0 0.017 0.006 0.032 0.016 0.043l-0-0c0.012 0.018 0.033 0.030 0.056 0.030 0.020 0 0.039-0.009 0.051-0.023l0-0c0.014-0.012 0.023-0.030 0.023-0.050s-0.009-0.038-0.023-0.050l-0-0zM16.467 20.313l0.107-0.020 0.020-0.287-0.113-0.040v0.167q0 0.1-0.013 0.187zM16.373 19.96l-0.113 0.027v0.147c0-0.053-0.020 0.14-0.020 0.14l0.113 0.040 0.020-0.18zM16 20.873c-0.091 0.073-0.197 0.131-0.313 0.171l-0.008 0.002-0.027-0.107c0.102-0.032 0.19-0.078 0.269-0.135l-0.003 0.002zM16.053 20.967c-0.092 0.071-0.198 0.13-0.312 0.171l-0.008 0.002 0.080 0.073c0.102-0.037 0.19-0.082 0.271-0.136l-0.005 0.003zM15.907 20.34l-0.107 0.047-0.193-0.22 0.067-0.093zM15.993 20.273l0.067-0.093-0.2-0.22-0.107 0.047zM14.653 19.693l0.033 0.107h0.3l0.033-0.107zM16.060 19.693l-0.033 0.107h-0.3l-0.033-0.107zM15.287 21.153q0.007-0.067 0.073-0.067c0.002-0 0.004-0 0.007-0 0.037 0 0.067 0.030 0.067 0.067 0 0 0 0 0 0v-0q-0.007 0.067-0.067 0.067c-0.004 0.001-0.009 0.001-0.013 0.001-0.037 0-0.067-0.030-0.067-0.067 0-0 0-0.001 0-0.001v0zM15.413 20.633l0.113-0.027v-0.287l-0.113-0.033zM15.307 20.633l-0.113-0.027v-0.287l0.113-0.033z"></path>
    <path fill="#c8b100" style="fill: var(--color4, #c8b100)" d="M14.1 19.613q0.027-0.1 0.12-0.133v-0.347h0.107v0.353q0.087 0.033 0.113 0.107h0.293v0.020h-0.4c-0.011-0.024-0.034-0.040-0.061-0.040-0.002 0-0.004 0-0.006 0l0-0q-0.040 0-0.067 0.040zM14.913 19.613v-0.020h0.273l0.013-0.020-0.333-0.38 0.080-0.067 0.333 0.373 0.013-0.007v-0.493h0.107v0.487h0.020l0.327-0.367 0.080 0.067-0.327 0.367 0.020 0.040h0.267v0.020zM16.353 19.613c0.011-0.024 0.034-0.040 0.061-0.040 0.002 0 0.004 0 0.006 0l-0-0q0.047 0 0.067 0.040h0.107q-0.027-0.1-0.12-0.133v-0.347h-0.107v0.353q-0.080 0.027-0.113 0.107h-0.293v0.020zM14.34 18.613l0.4 0.453 0.087-0.067-0.407-0.447 0.020-0.040h0.293v-0.113h-0.293c-0.031-0.064-0.093-0.108-0.166-0.113l-0.001-0c-0.002-0-0.004-0-0.007-0-0.093 0-0.17 0.074-0.173 0.166v0c0.009 0.072 0.055 0.132 0.119 0.16l0.001 0v0.347h0.107v-0.347zM16.473 18.613v0.353h-0.113v-0.347l-0.027-0.013-0.4 0.453-0.087-0.067 0.413-0.46-0.007-0.020h-0.3v-0.113h0.3c0.030-0.062 0.089-0.106 0.159-0.113l0.001-0c0.002-0 0.004-0 0.007-0 0.093 0 0.17 0.074 0.173 0.166v0c-0.001 0.077-0.054 0.142-0.125 0.16l-0.001 0zM15.4 18.613v0.22h-0.113v-0.213c-0.051-0.019-0.091-0.057-0.113-0.105l-0.001-0.001h-0.267v-0.113h0.267c0.031-0.064 0.093-0.108 0.166-0.113l0.001-0q0.133 0.007 0.167 0.113h0.267v0.107h-0.267c-0.021 0.048-0.058 0.086-0.105 0.106l-0.001 0zM14.213 18.88l-0.113 0.027v0.287l0.113 0.033zM14.32 18.88l0.113 0.027v0.287l-0.113 0.033zM16.36 18.88l-0.113 0.027v0.287l0.113 0.033zM16.467 18.88l0.113 0.027v0.287l-0.113 0.033zM14.767 18.933l0.107-0.047 0.193 0.22-0.067 0.093zM14.68 19l-0.067 0.093 0.2 0.22 0.107-0.047zM15.913 18.927l-0.107-0.047-0.2 0.22 0.067 0.093zM15.993 18.993l0.067 0.093-0.2 0.22-0.1-0.047zM14.64 19.593l0.033-0.107h0.3l0.033 0.107zM14.193 18.46q0-0.067 0.080-0.067c0.037 0 0.067 0.030 0.067 0.067v0q0 0.067-0.067 0.067c-0.004 0.001-0.009 0.001-0.013 0.001-0.037 0-0.067-0.030-0.067-0.067 0-0 0-0.001 0-0.001v0zM15 18.513l-0.033 0.107h-0.3l-0.033-0.107zM15 18.407l-0.033-0.107h-0.3l-0.033 0.107zM16.047 19.593l-0.033-0.107h-0.3l-0.033 0.107zM16.34 18.46q0.007-0.067 0.073-0.067c0.002-0 0.004-0 0.007-0 0.037 0 0.067 0.030 0.067 0.067 0 0 0 0 0 0v-0q-0.007 0.067-0.067 0.067c-0.004 0.001-0.009 0.001-0.013 0.001-0.037 0-0.067-0.030-0.067-0.067 0-0 0-0.001 0-0.001v0zM15.267 18.46q0.007-0.067 0.073-0.067c0.002-0 0.004-0 0.007-0 0.037 0 0.067 0.030 0.067 0.067 0 0 0 0 0 0v-0q-0.007 0.067-0.073 0.067c-0.002 0-0.004 0-0.007 0-0.037 0-0.067-0.030-0.067-0.067 0-0 0-0 0-0v0zM15.68 18.513l0.033 0.107h0.307l0.033-0.107zM15.68 18.407l0.033-0.107h0.307l0.033 0.107zM15.287 18.74l-0.113 0.033v0.287l0.113 0.033v-0.36zM15.4 18.733l0.107 0.033v0.287l-0.107 0.033z"></path>
    <path fill="#058e6e" style="fill: var(--color6, #058e6e)" d="M15.18 19.647c0.004-0.093 0.080-0.167 0.173-0.167 0 0 0 0 0 0v0c0 0 0 0 0 0 0.093 0 0.17 0.074 0.173 0.166v0c-0.007 0.090-0.082 0.16-0.173 0.16-0 0-0 0-0.001 0h0c-0.093 0-0.173-0.067-0.173-0.16z"></path>
    <path fill="#db4446" style="fill: var(--color10, #db4446)" d="M15.393 15.313v-0.040l0.007-0.020-0.153-0.007c-0.059-0.016-0.111-0.044-0.154-0.081l0.001 0.001q-0.067-0.067-0.107-0.080c-0.087-0.013-0.153 0.027-0.153 0.027s0.067 0.027 0.113 0.087 0.1 0.087 0.12 0.093c0.040 0.013 0.173 0 0.207 0.007z"></path>
    <path fill="#ed72aa" style="fill: var(--color11, #ed72aa)" d="M15.873 15.167v0.093c0.013 0.040-0.007 0.080 0 0.1q0 0.033 0.020 0.060l0.013 0.060-0.047-0.033-0.040-0.027v0.067l0.040 0.073 0.067 0.087c0.013 0.033 0.007 0.093 0.007 0.093s-0.027-0.047-0.053-0.053l-0.080-0.047s0.047 0.053 0.047 0.1l-0.020 0.107c-0.007 0.013-0.020-0.047-0.053-0.073l-0.067-0.060s0.027 0.080 0.027 0.133v0.153l-0.060-0.067-0.067-0.047c0-0.013 0.033 0.040 0.040 0.073s0.020 0.153 0.12 0.3c0.067 0.087 0.153 0.24 0.353 0.193s0.127-0.32 0.087-0.447c-0.034-0.090-0.058-0.194-0.066-0.303l-0-0.004c0-0.053 0.040-0.193 0.033-0.22-0.003-0.021-0.005-0.045-0.005-0.070 0-0.049 0.007-0.096 0.019-0.141l-0.001 0.004 0.060-0.153 0.027-0.087 0.007-0.087 0.047 0.087 0.007 0.1s0.007-0.067 0.067-0.107 0.12-0.073 0.133-0.093l0.020-0.033c-0.007 0 0 0.12-0.040 0.173l-0.113 0.133s0.047-0.020 0.080-0.020h0.060s-0.040 0.027-0.093 0.107c-0.053 0.067-0.033 0.080-0.067 0.14s-0.067 0.067-0.113 0.1c-0.067 0.053-0.033 0.28-0.027 0.313 0.013 0.033 0.133 0.3 0.133 0.367s0.013 0.213-0.1 0.307c-0.073 0.067-0.2 0.067-0.227 0.080-0.027 0.020-0.080 0.073-0.080 0.187s0.040 0.133 0.067 0.16c0.040 0.033 0.080 0.013 0.087 0.040l0.033 0.047q0.020 0.020 0.013 0.053c0 0.020-0.053 0.073-0.073 0.113l-0.053 0.16c0 0.013-0.007 0.067 0.007 0.087 0 0 0.060 0.067 0.020 0.080-0.027 0.013-0.053-0.013-0.067-0.013l-0.060 0.033q-0.020-0.007-0.027-0.053l-0.007-0.047q-0.020 0-0.027 0.033c0 0.013 0 0.053-0.020 0.053l-0.053-0.033c-0.013 0-0.053-0.013-0.053-0.027q0.007-0.040 0.047-0.067 0.053-0.007 0.033-0.033t-0.047 0c-0.020 0.027-0.053 0-0.047-0.013v-0.053c0-0.013-0.027-0.033 0.007-0.053s0.053 0.013 0.093 0.007q0.053 0 0.067-0.040 0.020-0.040-0.013-0.093l-0.060-0.053-0.020-0.060v0.147l-0.047-0.053c-0.020-0.020-0.040-0.087-0.040-0.087v0.087l0.013 0.053c-0.007 0.007-0.053-0.047-0.067-0.053l-0.067-0.067-0.027-0.093v-0.1l0.027-0.067h-0.093c-0.047 0-0.080-0.020-0.1 0.013q-0.027 0.053 0.013 0.187 0.033 0.12 0.027 0.14l-0.047 0.053h-0.060l-0.080-0.020h-0.087l-0.073-0.020c-0.020 0.007-0.053 0.020-0.040 0.047q0.007 0.053-0.033 0.047l-0.060-0.013q-0.053 0-0.053-0.027t0.027-0.047q0.020-0.033 0-0.033h-0.040q-0.020 0.027-0.053 0.027-0.020-0.007-0.027-0.067c-0.007-0.060-0.047-0.080 0-0.073 0.033 0 0.087 0.027 0.093 0q0.013-0.027-0.013-0.047c-0.027-0.020-0.053-0.027-0.020-0.047l0.047-0.033c0.007-0.013 0.027-0.053 0.047-0.040 0.040 0.013 0 0.047 0.040 0.087s0.067 0.067 0.133 0.053q0.093 0 0.087-0.033l-0.007-0.067v-0.067s-0.027 0.020-0.033 0.040l-0.027 0.053v-0.133l-0.013-0.053-0.020 0.060-0.007 0.067s-0.047-0.033-0.033-0.1l0.007-0.133c0.013-0.020 0.047-0.1 0.133-0.107h0.173l0.133-0.020s-0.187-0.093-0.233-0.127c-0.051-0.038-0.095-0.082-0.132-0.132l-0.001-0.002-0.040-0.107s-0.033 0-0.067 0.020l-0.080 0.067-0.047 0.067 0.007-0.080v-0.053s-0.027 0.080-0.067 0.113l-0.093 0.067v-0.053l0.013-0.067s-0.027 0.053-0.073 0.067c-0.047 0-0.12 0-0.127 0.027q0.013 0.053 0 0.093c0 0.020-0.027 0.033-0.027 0.033l-0.053-0.027-0.047 0.013c-0.007 0.007-0.020-0.027-0.013-0.047s0.047-0.040 0.033-0.053l-0.053 0.013c-0.020 0.007-0.053 0.020-0.053-0.013q0.013-0.040 0-0.067 0-0.027 0.013-0.040l0.080-0.007q0-0.027-0.053-0.040-0.067-0.013-0.033-0.053 0.020-0.013 0.033-0.040c0.007-0.013 0.013-0.047 0.047-0.033 0.033 0.020 0.027 0.053 0.067 0.067 0.012 0.002 0.027 0.003 0.041 0.003 0.033 0 0.065-0.006 0.094-0.017l-0.002 0.001 0.2-0.133-0.067-0.053q-0.033-0.047-0.067-0.067l-0.12-0.040-0.113-0.033 0.053-0.020q0.027-0.033 0.053-0.040h-0.073c-0.020-0.007-0.067-0.040-0.087-0.040l-0.053 0.007s0.053-0.027 0.093-0.033l0.067-0.007s-0.060-0.020-0.073-0.040l-0.040-0.067q-0.013-0.020-0.040-0.033l-0.067 0.020q-0.040 0-0.040-0.040l-0.007-0.033c-0.013-0.020-0.040-0.053-0.013-0.067h0.093q-0.013-0.027-0.053-0.053c-0.027-0.013-0.067-0.033-0.047-0.053l0.053-0.033c0.013-0.020 0.020-0.067 0.047-0.047 0.027 0.013 0.053 0.080 0.073 0.073s0.020-0.053 0.020-0.067c0-0.027 0-0.067 0.013-0.060l0.067 0.033q0.053-0.007 0.067 0.013 0 0.033-0.040 0.067-0.027 0.040-0.020 0.093 0.027 0.067 0.080 0.093t0.113 0.060c0.033 0.020 0.113 0.080 0.14 0.087l0.053 0.027s0.033-0.013 0.073-0.013 0.14 0 0.173-0.013 0.087-0.040 0.067-0.067c-0.007-0.040-0.087-0.067-0.080-0.093q0-0.033 0.080-0.027c0.053 0 0.12 0.007 0.133-0.067q0.033-0.093-0.053-0.12c-0.067-0.013-0.12-0.013-0.133-0.067q-0.027-0.067-0.013-0.073 0.020-0.020 0.093-0.027 0.087 0 0.127-0.013l0.040-0.060c0.020-0.013 0.093-0.027 0.093-0.027s0.093 0.047 0.18 0.113l0.147 0.14"></path>
    <path fill="#000" style="fill: var(--color12, #000)" d="M15.207 15.12l-0.013-0.040v-0.020s0.053 0 0.047 0.020q0 0.013-0.020 0.020z"></path>
    <path fill="#000" style="fill: var(--color12, #000)" d="M15.467 15.027v-0.027s0.047 0 0.067 0.020c0.033 0.027 0.060 0.067 0.060 0.067l-0.053-0.027h-0.033l-0.020-0.007v-0.020z"></path>
    <path fill="#db4446" style="fill: var(--color10, #db4446)" d="M14.493 15.107s0.033 0.027 0.053 0.027h0.053s0.013-0.033 0.007-0.053c-0.013-0.080-0.080-0.093-0.080-0.093s0.020 0.047 0.007 0.067z"></path>
    <path fill="#db4446" style="fill: var(--color10, #db4446)" d="M14.347 15.173s-0.027-0.047-0.087-0.040-0.093 0.053-0.093 0.053h0.080c0.020 0.020 0.027 0.067 0.027 0.067l0.047-0.040z"></path>
    <path fill="#db4446" style="fill: var(--color10, #db4446)" d="M14.28 15.373s-0.053 0.007-0.080 0.040-0.020 0.087-0.020 0.087 0.027-0.033 0.060-0.033l0.067 0.013-0.007-0.053z"></path>
    <path fill="#000" style="fill: var(--color12, #000)" d="M15.213 15.367l0.020-0.033 0.020 0.033z"></path>
    <path fill="#000" style="fill: var(--color12, #000)" d="M15.267 15.367l0.020-0.033 0.027 0.033z"></path>
    <path fill="#000" style="fill: var(--color12, #000)" d="M15.24 15.153l0.053 0.020-0.047 0.027-0.007-0.040z"></path>
    <path fill="#000" style="fill: var(--color12, #000)" d="M15.3 15.173l0.047 0.013-0.033 0.027z"></path>
    <path fill="#db4446" style="fill: var(--color10, #db4446)" d="M14.44 16.027s-0.027-0.033-0.073-0.020c-0.047 0-0.080 0.060-0.080 0.060s0.040-0.013 0.067-0.007 0.040 0.027 0.040 0.027l0.027-0.027z"></path>
    <path fill="#db4446" style="fill: var(--color10, #db4446)" d="M14.387 16.213s-0.040 0-0.073 0.020c-0.033 0.027-0.033 0.080-0.033 0.080s0.027-0.027 0.053-0.020l0.060 0.013v-0.040c0.013-0.027-0.007-0.053-0.007-0.053z"></path>
    <path fill="#db4446" style="fill: var(--color10, #db4446)" d="M14.48 16.387s0 0.053 0.020 0.087c0.027 0.033 0.073 0.033 0.073 0.033l-0.020-0.047 0.020-0.053q0.007-0.007-0.047-0.020z"></path>
    <path fill="#db4446" style="fill: var(--color10, #db4446)" d="M14.947 16.84s-0.027-0.040-0.073-0.040-0.093 0.047-0.093 0.047 0.053-0.007 0.067 0.013l0.033 0.040 0.033-0.020z"></path>
    <path fill="#db4446" style="fill: var(--color10, #db4446)" d="M14.813 17.020s-0.067-0.007-0.093 0.020-0.027 0.087-0.027 0.087 0.040-0.040 0.067-0.033q0.060 0.007 0.067 0.020v-0.047l-0.020-0.047z"></path>
    <path fill="#db4446" style="fill: var(--color10, #db4446)" d="M14.933 17.207s-0.020 0.047 0 0.073 0.067 0.053 0.067 0.053-0.020-0.027-0.013-0.053c0.007-0.020 0.047-0.053 0.047-0.053l-0.093-0.013z"></path>
    <path fill="#db4446" style="fill: var(--color10, #db4446)" d="M15.733 17.287s-0.053-0.013-0.080 0c-0.033 0.020-0.053 0.093-0.053 0.093s0.047-0.040 0.080-0.033q0.060 0.007 0.067 0.020v-0.053z"></path>
    <path fill="#db4446" style="fill: var(--color10, #db4446)" d="M15.76 17.48s-0.040 0.040-0.027 0.073l0.040 0.067s0-0.047 0.013-0.067l0.067-0.020-0.047-0.033z"></path>
    <path fill="#db4446" style="fill: var(--color10, #db4446)" d="M15.96 17.533s-0.020 0.053 0.013 0.087l0.067 0.033q-0.013-0.020-0.013-0.073 0.020-0.047 0.033-0.047l-0.053-0.013-0.047 0.020z"></path>
    <path fill="#ffd691" style="fill: var(--color13, #ffd691)" d="M13.92 21.093q0.2 0.067 0.2 0.253c0 0.153-0.147 0.267-0.333 0.267-0.2 0-0.353-0.113-0.353-0.267 0-0.113 0.067-0.24 0.2-0.253l-0.013-0.027-0.047-0.047h0.080l0.053 0.033 0.033-0.047 0.040-0.033 0.040 0.040 0.020 0.033 0.047-0.027 0.053-0.020s0 0.027-0.013 0.047l-0.007 0.047"></path>
    <path fill="#058e6e" style="fill: var(--color6, #058e6e)" d="M13.753 21.78s-0.253-0.173-0.367-0.2c-0.133-0.027-0.3 0-0.367 0 0 0 0.080 0.053 0.12 0.093 0.033 0.033 0.153 0.1 0.22 0.12 0.2 0.053 0.4-0.013 0.4-0.013M13.827 21.793s0.16-0.167 0.333-0.193c0.2-0.027 0.333 0.020 0.413 0.040l-0.1 0.053c-0.033 0.020-0.133 0.1-0.267 0.107-0.133 0-0.293-0.020-0.32-0.013l-0.060 0.007"></path>
    <path fill="#ad1519" style="fill: var(--color3, #ad1519)" d="M13.78 21.587c-0.061-0.060-0.099-0.144-0.099-0.237s0.038-0.176 0.099-0.237l0-0c0.061 0.059 0.099 0.142 0.1 0.233v0c0 0.001 0 0.001 0 0.002 0 0.093-0.038 0.177-0.1 0.238l-0 0"></path>
    <path fill="#058e6e" style="fill: var(--color6, #058e6e)" d="M13.713 21.933s0.040-0.1 0.040-0.18l-0.007-0.14h0.053s0.020 0.073 0.020 0.133l-0.007 0.16-0.047 0.007-0.053 0.020"></path>
    <path fill="#fff" style="fill: var(--color5, #fff)" d="M16.933 12.713q0.007-0.060 0.067-0.067 0.067 0.007 0.073 0.067-0.007 0.067-0.067 0.067c-0.037 0-0.067-0.030-0.067-0.067v0z"></path>
    <path fill="#fff" style="fill: var(--color5, #fff)" d="M17.027 12.547q0.007-0.067 0.073-0.067t0.067 0.067c0 0.067-0.027 0.067-0.067 0.067-0.037 0-0.067-0.030-0.067-0.067v0z"></path>
    <path fill="#fff" style="fill: var(--color5, #fff)" d="M17.093 12.347q0.007-0.060 0.067-0.067 0.067 0.007 0.073 0.067c0.007 0.060-0.033 0.067-0.067 0.067-0.002 0-0.004 0-0.007 0-0.037 0-0.067-0.030-0.067-0.067 0-0 0-0 0-0v0z"></path>
    <path fill="#fff" style="fill: var(--color5, #fff)" d="M17.1 12.133q0.007-0.060 0.067-0.067 0.067 0.007 0.073 0.067-0.007 0.067-0.067 0.067c-0.037 0-0.067-0.030-0.067-0.067v0z"></path>
    <path fill="#fff" style="fill: var(--color5, #fff)" d="M17.047 11.933q0.007-0.067 0.067-0.067 0.073 0 0.080 0.067c0.007 0.067-0.033 0.067-0.073 0.067-0.037 0-0.067-0.030-0.067-0.067v0z"></path>
    <path fill="#fff" style="fill: var(--color5, #fff)" d="M16.94 11.74q0.007-0.060 0.067-0.067 0.067 0.007 0.073 0.067 0 0.080-0.067 0.067c-0.037 0-0.067-0.030-0.067-0.067v0z"></path>
    <path fill="#fff" style="fill: var(--color5, #fff)" d="M16.8 11.587q0-0.067 0.067-0.067c0.067 0 0.067 0.027 0.067 0.067s-0.027 0.067-0.067 0.067c-0.037 0-0.067-0.030-0.067-0.067v0z"></path>
    <path fill="#fff" style="fill: var(--color5, #fff)" d="M16.627 11.453q0.007-0.060 0.073-0.067c0.037 0 0.067 0.030 0.067 0.067s-0.030 0.067-0.067 0.067v0q-0.067 0-0.067-0.067z"></path>
    <path fill="#fff" style="fill: var(--color5, #fff)" d="M16.433 11.353q0-0.067 0.067-0.067c0.067 0 0.067 0.027 0.067 0.067s-0.027 0.067-0.067 0.067c-0.037 0-0.067-0.030-0.067-0.067v0z"></path>
    <path fill="#fff" style="fill: var(--color5, #fff)" d="M16.22 11.273q0.007-0.060 0.073-0.067c0.037 0 0.067 0.030 0.067 0.067s-0.030 0.067-0.067 0.067v0c-0.037 0-0.067-0.030-0.067-0.067v0z"></path>
    <path fill="#fff" style="fill: var(--color5, #fff)" d="M15.993 11.233q0-0.060 0.067-0.067c0.067-0.007 0.067 0.033 0.067 0.067s-0.027 0.067-0.067 0.067c-0.037 0-0.067-0.030-0.067-0.067v0z"></path>
    <path fill="#fff" style="fill: var(--color5, #fff)" d="M15.773 11.22q0-0.060 0.067-0.067c0.067-0.007 0.067 0.033 0.067 0.067s-0.027 0.067-0.067 0.067c-0.037 0-0.067-0.030-0.067-0.067v0z"></path>
    <path fill="#fff" style="fill: var(--color5, #fff)" d="M15.553 11.233q0.007-0.067 0.067-0.067t0.073 0.067c0.007 0.067-0.027 0.067-0.067 0.067-0.037 0-0.067-0.030-0.067-0.067v0z"></path>
    <path fill="#fff" style="fill: var(--color5, #fff)" d="M15.34 11.233q0.007-0.067 0.067-0.067t0.073 0.067c0.007 0.067-0.033 0.067-0.067 0.067-0.002 0-0.004 0-0.007 0-0.037 0-0.067-0.030-0.067-0.067 0-0 0-0 0-0v0z"></path>
    <path fill="#fff" style="fill: var(--color5, #fff)" d="M15.447 11.413q0.007-0.060 0.067-0.067 0.067 0.007 0.073 0.067 0 0.080-0.067 0.067c-0.037 0-0.067-0.030-0.067-0.067v0M15.493 11.62q0-0.067 0.067-0.067c0.067 0 0.067 0.027 0.067 0.067q0 0.060-0.067 0.067c-0.037 0-0.067-0.030-0.067-0.067v0M15.493 11.82q0.013-0.060 0.073-0.067c0.037 0 0.067 0.030 0.067 0.067s-0.030 0.067-0.067 0.067v0c-0.037 0-0.067-0.030-0.067-0.067v0M15.433 12.007q0.007-0.060 0.067-0.067 0.067 0.007 0.073 0.067 0 0.067-0.067 0.067c-0.037 0-0.067-0.030-0.067-0.067v0M15.313 12.18q0.007-0.060 0.067-0.067 0.073 0.007 0.080 0.067 0 0.080-0.073 0.067-0.067 0-0.067-0.067"></path>
    <path fill="#fff" style="fill: var(--color5, #fff)" d="M15.173 11.1q0.007-0.060 0.073-0.067c0.037 0 0.067 0.030 0.067 0.067s-0.030 0.067-0.067 0.067v0c-0.037 0-0.067-0.030-0.067-0.067v0z"></path>
    <path fill="#fff" style="fill: var(--color5, #fff)" d="M14.987 11q0-0.067 0.067-0.067c0.067 0 0.067 0.027 0.067 0.067s-0.027 0.067-0.067 0.067c-0.037 0-0.067-0.030-0.067-0.067v0z"></path>
    <path fill="#fff" style="fill: var(--color5, #fff)" d="M14.773 10.933q0.007-0.067 0.067-0.067t0.073 0.067q-0.007 0.060-0.067 0.067-0.067-0.007-0.073-0.067z"></path>
    <path fill="#fff" style="fill: var(--color5, #fff)" d="M14.553 10.893q0.007-0.060 0.067-0.067 0.067 0.007 0.073 0.067 0 0.080-0.067 0.067c-0.002 0-0.004 0-0.007 0-0.037 0-0.067-0.030-0.067-0.067 0-0 0-0 0-0v0z"></path>
    <path fill="#fff" style="fill: var(--color5, #fff)" d="M14.333 10.9q0.007-0.067 0.073-0.067t0.067 0.067-0.067 0.067c-0.037 0-0.067-0.030-0.067-0.067v0z"></path>
    <path fill="#fff" style="fill: var(--color5, #fff)" d="M14.113 10.933q0.007-0.060 0.067-0.067 0.067 0.007 0.073 0.067 0 0.080-0.067 0.067c-0.037 0-0.067-0.030-0.067-0.067v0z"></path>
    <path fill="#fff" style="fill: var(--color5, #fff)" d="M13.907 11.007q0.007-0.060 0.067-0.067 0.067 0.007 0.073 0.067c0.007 0.060-0.033 0.067-0.067 0.067-0.002 0-0.004 0-0.007 0-0.037 0-0.067-0.030-0.067-0.067 0-0 0-0 0-0v0z"></path>
    <path fill="#fff" style="fill: var(--color5, #fff)" d="M10.4 12.713q0-0.060 0.067-0.067c0.067-0.007 0.067 0.033 0.067 0.067q0 0.067-0.067 0.067c-0.037 0-0.067-0.030-0.067-0.067v0z"></path>
    <path fill="#fff" style="fill: var(--color5, #fff)" d="M10.3 12.547q0.007-0.067 0.067-0.067t0.067 0.067c0 0.067-0.027 0.067-0.067 0.067-0.037 0-0.067-0.030-0.067-0.067v0z"></path>
    <path fill="#fff" style="fill: var(--color5, #fff)" d="M10.233 12.347q0.007-0.060 0.067-0.067 0.067 0.007 0.073 0.067 0 0.080-0.067 0.067c-0.037 0-0.067-0.030-0.067-0.067v0z"></path>
    <path fill="#fff" style="fill: var(--color5, #fff)" d="M10.227 12.133q0.007-0.060 0.067-0.067 0.067 0.007 0.073 0.067-0.007 0.067-0.067 0.067c-0.037 0-0.067-0.030-0.067-0.067v0z"></path>
    <path fill="#fff" style="fill: var(--color5, #fff)" d="M10.28 11.933q0.007-0.067 0.067-0.067t0.067 0.067c0 0.067-0.027 0.067-0.067 0.067-0.037 0-0.067-0.030-0.067-0.067v0z"></path>
    <path fill="#fff" style="fill: var(--color5, #fff)" d="M10.387 11.74q0.007-0.060 0.067-0.067 0.067 0.007 0.073 0.067 0 0.080-0.067 0.067c-0.037 0-0.067-0.030-0.067-0.067v0z"></path>
    <path fill="#fff" style="fill: var(--color5, #fff)" d="M10.533 11.587q0-0.067 0.067-0.067c0.067 0 0.067 0.027 0.067 0.067s-0.027 0.067-0.067 0.067c-0.037 0-0.067-0.030-0.067-0.067v0z"></path>
    <path fill="#fff" style="fill: var(--color5, #fff)" d="M10.7 11.453q0-0.060 0.067-0.067c0.067-0.007 0.067 0.033 0.067 0.067s-0.027 0.067-0.067 0.067c-0.037 0-0.067-0.030-0.067-0.067v0z"></path>
    <path fill="#fff" style="fill: var(--color5, #fff)" d="M10.9 11.353q0-0.067 0.067-0.067c0.067 0 0.067 0.027 0.067 0.067s-0.027 0.067-0.067 0.067c-0.037 0-0.067-0.030-0.067-0.067v0z"></path>
    <path fill="#fff" style="fill: var(--color5, #fff)" d="M11.107 11.273q0.007-0.060 0.067-0.067c0.037 0 0.067 0.030 0.067 0.067s-0.030 0.067-0.067 0.067v0c-0.037 0-0.067-0.030-0.067-0.067v0z"></path>
    <path fill="#fff" style="fill: var(--color5, #fff)" d="M11.333 11.233q0.007-0.060 0.073-0.067c0.037 0 0.067 0.030 0.067 0.067s-0.030 0.067-0.067 0.067v0q-0.067 0-0.067-0.067z"></path>
    <path fill="#fff" style="fill: var(--color5, #fff)" d="M11.56 11.22q0-0.060 0.067-0.067c0.067-0.007 0.067 0.033 0.067 0.067s-0.027 0.067-0.067 0.067c-0.037 0-0.067-0.030-0.067-0.067v0z"></path>
    <path fill="#fff" style="fill: var(--color5, #fff)" d="M11.773 11.233q0.007-0.067 0.067-0.067t0.073 0.067c0.007 0.067-0.033 0.067-0.067 0.067-0.002 0-0.004 0-0.007 0-0.037 0-0.067-0.030-0.067-0.067 0-0 0-0 0-0v0z"></path>
    <path fill="#fff" style="fill: var(--color5, #fff)" d="M11.987 11.233q0.007-0.067 0.067-0.067 0.073 0 0.080 0.067c0.007 0.067-0.033 0.067-0.073 0.067-0.037 0-0.067-0.030-0.067-0.067v0z"></path>
    <path fill="#fff" style="fill: var(--color5, #fff)" d="M11.88 11.413q0.007-0.060 0.067-0.067 0.067 0.007 0.073 0.067 0 0.080-0.067 0.067c-0.037 0-0.067-0.030-0.067-0.067v0M11.84 11.62q0-0.067 0.067-0.067c0.067 0 0.067 0.027 0.067 0.067q0 0.060-0.067 0.067c-0.037 0-0.067-0.030-0.067-0.067v0M11.827 11.82q0.007-0.060 0.067-0.067 0.067 0.007 0.073 0.067 0 0.080-0.067 0.067c-0.037 0-0.067-0.030-0.067-0.067v0M11.893 12.007q0.007-0.060 0.067-0.067 0.067 0.007 0.073 0.067-0.007 0.067-0.067 0.067c-0.002 0-0.004 0-0.007 0-0.037 0-0.067-0.030-0.067-0.067 0-0 0-0 0-0v0M12.013 12.18q0.007-0.060 0.067-0.067c0.037 0 0.067 0.030 0.067 0.067s-0.030 0.067-0.067 0.067v0c-0.037 0-0.067-0.030-0.067-0.067v0"></path>
    <path fill="#fff" style="fill: var(--color5, #fff)" d="M12.153 11.1q0.007-0.060 0.067-0.067c0.037 0 0.067 0.030 0.067 0.067s-0.030 0.067-0.067 0.067v0c-0.037 0-0.067-0.030-0.067-0.067v0z"></path>
    <path fill="#fff" style="fill: var(--color5, #fff)" d="M12.347 11q0-0.067 0.067-0.067c0.067 0 0.067 0.027 0.067 0.067s-0.027 0.067-0.067 0.067c-0.037 0-0.067-0.030-0.067-0.067v0z"></path>
    <path fill="#fff" style="fill: var(--color5, #fff)" d="M12.553 10.933q0.007-0.067 0.067-0.067t0.073 0.067q0 0.060-0.067 0.067c-0.067 0.007-0.067-0.033-0.067-0.067z"></path>
    <path fill="#fff" style="fill: var(--color5, #fff)" d="M12.773 10.893q0.007-0.060 0.067-0.067 0.067 0.007 0.073 0.067 0 0.080-0.067 0.067c-0.037 0-0.067-0.030-0.067-0.067v0z"></path>
    <path fill="#fff" style="fill: var(--color5, #fff)" d="M12.993 10.9q0-0.067 0.067-0.067c0.067 0 0.067 0.027 0.067 0.067q0 0.060-0.067 0.067c-0.037 0-0.067-0.030-0.067-0.067v0z"></path>
    <path fill="#fff" style="fill: var(--color5, #fff)" d="M13.213 10.933q0.007-0.060 0.067-0.067 0.067 0.007 0.073 0.067 0 0.080-0.067 0.067c-0.037 0-0.067-0.030-0.067-0.067v0z"></path>
    <path fill="#fff" style="fill: var(--color5, #fff)" d="M13.42 11.007q0.007-0.060 0.067-0.067 0.067 0.007 0.073 0.067 0 0.080-0.067 0.067c-0.037 0-0.067-0.030-0.067-0.067v0z"></path>
    <path fill="#c8b100" style="fill: var(--color4, #c8b100)" d="M11.647 15.26h-0.067v-0.067h-0.1v0.24h0.107v0.167h-0.227v0.467h0.12v0.953h-0.233v0.487h1.813v-0.487h-0.233v-0.953h0.12v-0.467h-0.227v-0.167h0.107v-0.233h-0.107v0.060h-0.053v-0.067h-0.107v0.067h-0.073v-0.067h-0.107v0.24h0.107v0.167h-0.22v-0.52h0.113v-0.233h-0.113v0.060h-0.067v-0.067h-0.1v0.067h-0.060v-0.067h-0.107v0.24h0.113v0.52h-0.22v-0.167h0.107v-0.233h-0.107v0.060h-0.060v-0.067h-0.12zM11.247 17.507h1.82M11.247 17.387h1.82M11.247 17.267h1.82M11.247 17.153h1.82M11.247 17.020h1.82M11.48 16.913h1.347M11.48 16.793h1.347M11.48 16.66h1.347M11.48 16.547h1.347M11.48 16.427h1.347M11.48 16.307h1.347M11.48 16.193h1.347M11.36 16.073h1.587M11.36 15.953h1.587M11.36 15.833h1.587M11.36 15.713h1.587M11.587 15.6h1.133M12.040 15.48h0.227M12.040 15.36h0.227M12.040 15.24h0.227M12.040 15.127h0.227M11.927 14.98h0.453M11.58 15.48h0.24M11.487 15.333h0.44M11.48 17.507v-0.12M11.48 17.267v-0.113M11.36 17.267v0.12M11.587 17.387v-0.12M11.7 17.507v-0.12M11.7 17.267v-0.113M11.7 17.020v-0.107M11.7 16.793v-0.133M11.587 17.153v-0.133M11.36 17.153v-0.133M11.827 17.020v0.133M11.927 17.020v-0.107M11.587 16.793v0.12M11.82 16.793v0.12M12.040 16.793v0.12M11.933 16.8v-0.133M12.047 16.553v0.113M12.047 16.313v0.12M11.933 16.193v0.12M12.047 16.080v0.113M11.827 16.080v0.113M11.593 16.080v0.113M11.487 15.96v0.12M11.707 15.96v0.12M11.933 15.96v0.12M12.047 15.84v0.12M11.827 15.84v0.12M11.593 15.84v0.12M11.487 15.72v0.12M11.933 15.72v0.12M11.707 15.487v0.12M12.727 15.487h-0.233M12.827 15.34h-0.44M12.833 17.513v-0.12M12.833 17.273v-0.113M12.953 17.273v0.12M12.727 17.393v-0.127M12.613 17.507v-0.12M12.613 17.267v-0.113M12.613 17.020v-0.107M12.613 16.793v-0.133M12.727 17.153v-0.133M12.953 17.153v-0.133M12.487 17.020v0.133M12.387 17.020v-0.107M12.727 16.793v0.12M12.493 16.793v0.12M12.273 16.793v0.12M12.387 16.793v-0.133M12.273 16.547v0.113M12.273 16.307v0.12M12.387 16.187v0.12M12.273 16.073v0.113M12.493 16.073v0.113M12.727 16.073v0.113M12.833 15.953v0.12M12.613 15.953v0.12M12.387 15.953v0.12M12.273 15.833v0.12M12.493 15.833v0.12M12.727 15.833v0.12M12.833 15.713v0.12M12.387 15.713v0.12M12.613 15.48v0.12M12.147 16.8v-0.133M12.147 16.307v-0.12M12.147 16.547v-0.12M12.147 16.073v-0.12M12.147 15.833v-0.113M12.147 15.48v-0.12M12.147 15.247v-0.12M11.593 15.433h0.233M12.047 15.080h0.227M12.493 15.433h0.233"></path>
    <path fill="#c8b100" style="fill: var(--color4, #c8b100)" d="M12.453 17.507v-0.313c0-0.053-0.027-0.233-0.307-0.233-0.267 0-0.293 0.18-0.293 0.233v0.313z"></path>
    <path fill="#c8b100" style="fill: var(--color4, #c8b100)" d="M11.953 17.213l-0.147-0.020c0-0.060 0.013-0.147 0.060-0.173l0.133 0.1c-0.020 0.013-0.047 0.067-0.047 0.093zM12.353 17.213l0.147-0.020c0-0.060-0.013-0.147-0.060-0.173l-0.133 0.1c0.020 0.013 0.047 0.067 0.047 0.093zM12.207 17.060l0.067-0.133-0.133-0.027-0.113 0.027 0.073 0.133zM11.927 16.693v-0.327c0-0.087-0.067-0.16-0.167-0.16s-0.16 0.067-0.16 0.16v0.327zM12.38 16.693v-0.327c0-0.087 0.067-0.16 0.167-0.16s0.16 0.067 0.16 0.16v0.327zM12.267 15.893l0.027-0.293h-0.28l0.013 0.293zM12.487 15.893l-0.027-0.293h0.293l-0.033 0.293zM11.82 15.893l0.013-0.293h-0.28l0.033 0.293z"></path>
    <path fill="#0039f0" style="fill: var(--color14, #0039f0)" d="M12.353 17.507v-0.267c0-0.047-0.033-0.18-0.207-0.18-0.16 0-0.193 0.133-0.193 0.18v0.267zM11.893 16.66v-0.28c0-0.067-0.040-0.147-0.133-0.147s-0.133 0.073-0.133 0.147v0.287h0.267zM12.413 16.66v-0.28c0-0.067 0.047-0.147 0.133-0.147s0.133 0.073 0.133 0.147v0.287h-0.267z"></path>
    <path fill="#ad1519" style="fill: var(--color3, #ad1519)" d="M12.72 17.987c0-0.647 0.467-1.173 1.040-1.173s1.040 0.527 1.040 1.173-0.467 1.167-1.040 1.167-1.040-0.52-1.040-1.167z"></path>
    <path fill="#005bbf" style="fill: var(--color7, #005bbf)" d="M13.027 17.98c0-0.467 0.333-0.853 0.733-0.853s0.733 0.38 0.733 0.853-0.333 0.867-0.733 0.867-0.733-0.387-0.733-0.867z"></path>
    <path fill="#c8b100" style="fill: var(--color4, #c8b100)" d="M13.413 17.393s-0.087 0.093-0.087 0.18c0.002 0.059 0.017 0.113 0.041 0.162l-0.001-0.002q-0.027-0.053-0.093-0.053-0.087 0.007-0.093 0.087l0.013 0.053 0.033 0.060q0.013-0.033 0.067-0.033 0.073 0 0.067 0.067v0.013h-0.080v0.067h0.067l-0.053 0.1 0.067-0.027 0.053 0.060 0.053-0.060 0.067 0.027-0.047-0.1h0.067v-0.067h-0.073v-0.020c0-0.037 0.030-0.067 0.067-0.067v0q0.040 0 0.067 0.040l0.027-0.067 0.013-0.047c-0.004-0.049-0.044-0.087-0.093-0.087-0 0-0 0-0 0v0q-0.067 0-0.093 0.060s0.040-0.080 0.040-0.167-0.093-0.18-0.093-0.18z"></path>
    <path fill="#c8b100" style="fill: var(--color4, #c8b100)" d="M13.28 17.993h0.273v-0.067h-0.273z"></path>
    <path fill="#c8b100" style="fill: var(--color4, #c8b100)" d="M14.093 17.393s-0.087 0.093-0.087 0.18 0.040 0.16 0.040 0.16q-0.020-0.053-0.093-0.053-0.087 0.007-0.093 0.087l0.013 0.053 0.033 0.060q0.020-0.033 0.067-0.033c0.037 0 0.067 0.030 0.067 0.067v0 0.013h-0.080v0.067h0.067l-0.053 0.1 0.067-0.027 0.053 0.060 0.053-0.060 0.067 0.027-0.047-0.1h0.067v-0.067h-0.073v-0.020c0-0.037 0.030-0.067 0.067-0.067v0q0.047 0 0.067 0.040l0.027-0.067 0.013-0.047c-0.004-0.049-0.044-0.087-0.093-0.087-0 0-0 0-0 0v0q-0.067 0-0.093 0.060s0.040-0.080 0.040-0.167-0.093-0.18-0.093-0.18z"></path>
    <path fill="#c8b100" style="fill: var(--color4, #c8b100)" d="M13.96 17.993h0.273v-0.067h-0.273z"></path>
    <path fill="#c8b100" style="fill: var(--color4, #c8b100)" d="M13.753 17.973s-0.087 0.1-0.087 0.187 0.040 0.16 0.040 0.16q-0.020-0.053-0.093-0.060-0.087 0.007-0.093 0.093l0.013 0.047 0.033 0.067q0.013-0.040 0.067-0.040c0.037 0 0.067 0.030 0.067 0.067v0 0.020h-0.080v0.067h0.067l-0.053 0.1 0.067-0.027 0.053 0.060 0.053-0.067 0.067 0.033-0.047-0.1h0.067v-0.067h-0.073v-0.020c0-0.037 0.030-0.067 0.067-0.067v0q0.040 0 0.060 0.040l0.033-0.067 0.013-0.047c0-0.052-0.042-0.093-0.093-0.093v0q-0.067 0-0.093 0.067s0.040-0.080 0.040-0.167-0.093-0.18-0.093-0.18z"></path>
    <path fill="#c8b100" style="fill: var(--color4, #c8b100)" d="M13.62 18.573h0.273v-0.067h-0.273z"></path>
    <path fill="#c8b100" style="fill: var(--color4, #c8b100)" d="M15.84 14.893h-0.020l-0.020 0.027q-0.027 0.020-0.053 0l-0.007-0.027h-0.033q-0.027-0.020-0.007-0.047v-0.033h-0.020l-0.007 0.013q-0.020 0.027-0.047 0.013v-0.013h-0.020c-0.033 0.013-0.047-0.067-0.047-0.080l-0.013 0.013s0.013 0.047 0.007 0.080l-0.020 0.080c0.074 0.025 0.139 0.061 0.194 0.107l-0.001-0.001c0.058 0.042 0.106 0.093 0.145 0.151l0.001 0.002 0.080-0.033c0.040-0.013 0.087-0.013 0.087-0.013l0.013-0.013c-0.020 0-0.1 0.007-0.1-0.027v-0.013h-0.013q-0.020-0.020 0-0.047l0.013-0.007v-0.020h-0.020l-0.013 0.007q-0.027 0.033-0.053 0l-0.007-0.027h-0.033q-0.027-0.020 0-0.053l0.013-0.020z"></path>
    <path fill="#000" style="fill: var(--color12, #000)" d="M15.693 14.933h0.013v0.020h-0.007q-0.007-0.007 0-0.013z"></path>
    <path fill="#000" style="fill: var(--color12, #000)" d="M15.753 14.987l-0.020-0.013v-0.013h0.007l0.027 0.020 0.020 0.013v0.013h-0.013z"></path>
    <path fill="#000" style="fill: var(--color12, #000)" d="M15.64 14.913l-0.013-0.013s-0.007 0 0-0.007l0.040 0.013v0.013h-0.007z"></path>
    <path fill="#000" style="fill: var(--color12, #000)" d="M15.58 14.867h0.013v0.013h-0.013s-0.007-0.007 0-0.013z"></path>
    <path fill="#000" style="fill: var(--color12, #000)" d="M15.82 15.033v-0.013h-0.020l0.007 0.013z"></path>
    <path fill="#000" style="fill: var(--color12, #000)" d="M15.86 15.080l0.013 0.013h0.007v-0.013l-0.027-0.027h-0.007v0.013z"></path>
    <path fill="#000" style="fill: var(--color12, #000)" d="M15.92 15.133v-0.020h-0.020v0.013h0.020z"></path>
    <path fill="#c8b100" style="fill: var(--color4, #c8b100)" d="M15.747 14.74h-0.040l-0.007 0.060v0.007h0.013l0.047-0.033-0.020-0.033z"></path>
    <path fill="#c8b100" style="fill: var(--color4, #c8b100)" d="M15.64 14.773v0.033l0.060 0.007h0.007v-0.013l-0.033-0.047z"></path>
    <path fill="#c8b100" style="fill: var(--color4, #c8b100)" d="M15.76 14.84l-0.027 0.020-0.040-0.047v-0.007h0.073z"></path>
    <path fill="#c8b100" style="fill: var(--color4, #c8b100)" d="M15.687 14.8h0.027v0.020h-0.020z"></path>
    <path fill="#c8b100" style="fill: var(--color4, #c8b100)" d="M15.547 14.74l-0.013-0.047-0.027-0.027s0.027-0.013 0.053 0.007 0 0.060 0 0.060z"></path>
    <path fill="#c8b100" style="fill: var(--color4, #c8b100)" d="M15.613 14.76l-0.027 0.027-0.040-0.040v-0.013h0.067z"></path>
    <path fill="#c8b100" style="fill: var(--color4, #c8b100)" d="M15.54 14.733l0.020-0.007v0.020q0 0.020-0.013 0.013z"></path>
    <path fill="#c8b100" style="fill: var(--color4, #c8b100)" d="M15.887 14.833h-0.033l-0.020 0.047v0.013h0.013l0.053-0.027z"></path>
    <path fill="#c8b100" style="fill: var(--color4, #c8b100)" d="M15.78 14.853v0.033l0.053 0.013h0.007v-0.013l-0.027-0.047z"></path>
    <path fill="#c8b100" style="fill: var(--color4, #c8b100)" d="M15.893 14.933l-0.033 0.013-0.027-0.047v-0.013h0.007l0.060 0.013z"></path>
    <path fill="#c8b100" style="fill: var(--color4, #c8b100)" d="M15.82 14.88h0.027v0.027h-0.020z"></path>
    <path fill="#c8b100" style="fill: var(--color4, #c8b100)" d="M16.013 14.953l0.007 0.033-0.053 0.020h-0.013v-0.013l0.027-0.053z"></path>
    <path fill="#c8b100" style="fill: var(--color4, #c8b100)" d="M16 15.053l-0.033 0.007-0.020-0.053v-0.007h0.013l0.053 0.020z"></path>
    <path fill="#c8b100" style="fill: var(--color4, #c8b100)" d="M15.907 14.953l-0.013 0.033 0.060 0.020h0.007v-0.007l-0.020-0.053z"></path>
    <path fill="#c8b100" style="fill: var(--color4, #c8b100)" d="M15.967 15.013v-0.020h-0.027v0.020z"></path>
    <path fill="#c8b100" style="fill: var(--color4, #c8b100)" d="M16.053 15.133h0.053l0.033 0.020s0.007-0.027-0.020-0.047c-0.020-0.020-0.053 0.013-0.053 0.013z"></path>
    <path fill="#c8b100" style="fill: var(--color4, #c8b100)" d="M16.020 15.073l-0.020 0.033 0.053 0.033v-0.007h0.013l-0.007-0.067z"></path>
    <path fill="#c8b100" style="fill: var(--color4, #c8b100)" d="M16.067 15.133s0.007-0.007 0-0.013h-0.020q-0.020 0-0.007 0.013z"></path>
    </symbol>
    <symbol id="icon-ui-ua" viewBox="0 0 43 32">
    <path fill="#ffd700" style="fill: var(--color15, #ffd700)" d="M0 0h42.667v32h-42.667z"></path>
    <path fill="#0057b8" style="fill: var(--color16, #0057b8)" d="M0 0h42.667v16h-42.667z"></path>
</symbol>
</svg>
