<!-- Generated by IcoMoon.io -->
<svg version="1.1" xmlns="http://www.w3.org/2000/svg" width="32" height="32" viewBox="0 0 32 32">
<path d="M14.4 0v3.312c-5.794 0.756-10.332 5.294-11.081 11.023l-0.007 0.065h-3.312v3.2h3.312c0.756 5.794 5.294 10.332 11.023 11.081l0.065 0.007v3.312h3.2v-3.312c5.794-0.756 10.332-5.294 11.081-11.023l0.007-0.065h3.312v-3.2h-3.312c-0.756-5.794-5.294-10.332-11.023-11.081l-0.065-0.007v-3.312zM14.4 6.528v3.072h3.2v-3.056c4 0.656 7.2 3.856 7.872 7.856h-3.072v3.2h3.056c-0.656 4-3.856 7.2-7.856 7.872v-3.072h-3.2v3.056c-4-0.656-7.2-3.856-7.872-7.856h3.072v-3.2h-3.056c0.656-4 3.856-7.2 7.856-7.872zM16 14.4c-0.884 0-1.6 0.716-1.6 1.6v0c0 0.884 0.716 1.6 1.6 1.6v0c0.884 0 1.6-0.716 1.6-1.6v0c0-0.884-0.716-1.6-1.6-1.6v0z"></path>
</svg>
